<svg id="Layer_1" data-name="Layer 1" xmlns="http://www.w3.org/2000/svg" xmlns:xlink="http://www.w3.org/1999/xlink" viewBox="0 0 996.3 988.75"><defs><style>.cls-1{fill:#00b1ff;}.cls-2{fill:#30894b;}.cls-3{clip-path:url(#clip-path);}</style><clipPath id="clip-path" transform="translate(-2.03 -10.25)"><path d="M171.28,139C67,408.9,123.72,677.41,268.79,740.37c114.2,49.56,258.82-36.18,299.14-60C733.62,582.63,790.13,419.48,805,370.87c12.43,35,42.91,135.16,8.72,256.47C777.87,754.5,693.29,825.66,664.4,848c55.34-1.74,97-16,125.33-29.34C972.94,732,995.12,526.74,996.86,505.13c3,38.88,10.56,147.92-89.42,287.4C808.67,930.31,671,971.55,632.79,981.62A509.73,509.73,0,0,1,460.6,996.84,500,500,0,0,1,281,946C116.38,863.19,52.08,711.73,44.28,692.55-14.17,548.92,14.11,420,30,366.32,65.36,246.67,136.43,171.51,171.28,139Z"/></clipPath></defs><path class="cls-1" d="M502,996.75q101.19,3.81,188.79-42.21,91.11-29.64,157.69-101.31,71.67-66.59,101.32-157.7,46-87.59,42.2-188.78l-17.5-130.27q-34.93-124.5-126-216.22L749.32,83.64Q634.67,17.16,502,16.75,400.82,12.93,313.22,59,222.09,88.59,155.53,160.26,83.85,226.85,54.21,318,8.19,405.55,12,506.75L29.51,637q34.92,124.51,126,216.22l99.17,76.62Q369.33,996.33,502,996.75Z" transform="translate(-2.03 -10.25)"/><path class="cls-2" d="M358.61,46.82c11.87,14.55,4.39,35.62,6.65,52.63,2,15.17,11.23,29,27.29,31,6.82.86,17.45,1.63,21.42-5.36,1.68-3,1.57-6.3,1.75-9.59.27-4.77,1.81-9.31,3.56-13.72,3.55-8.92,7.25-18,11.55-26.63,1.63-3.26,3.56-6.72,6.82-8.61s7.21-2.31,9.91-5.39,2.91-7.13,3-11c.1-5.21.5-10.54.23-15.75-.42-7.81-6.89-11-13.33-13.92-4-1.77-10.17,2.33-6.84,6.84l.08.11V22.38c.65-1.41.28-.43-1.05.2a3.91,3.91,0,0,0-.8.38c-2,1.62-1.92-3.12,2.26,1.45L432.56,28c-.48,1.41-.39,1.56.25.45,3.74-5.25-4.93-10.25-8.63-5-3.39,4.77-.5,10.73,5.61,9.7,3-.49,8.18-2.67,9.53-5.62.7-1.53,1.11-3.55,0-5.05l-.08-.11-6.84,6.84A59,59,0,0,1,438,32c1,.56,2.17,1.06,2.67,2,.69,1.32.07,4.21.05,5.66-.06,3.82,0,7.65-.19,11.47-.19,4.53-3.12,4.47-6.65,6.15-5.64,2.71-9.36,8-12,13.52-3.54,7.28-6.5,14.9-9.69,22.34-2.75,6.41-5.47,12.81-6.23,19.81-.34,3.16.8,7-2.86,7.74a30.06,30.06,0,0,1-11.76-.53c-15.18-3.59-17-21.89-16.63-34.69.5-16.49,2.07-32.12-9-45.7-4.06-5-11.1,2.12-7.07,7.07Z" transform="translate(-2.03 -10.25)"/><path class="cls-2" d="M368.69,41.81c2.95,2.61,3.15,6.13,3.34,9.85.24,4.56.44,9.13.66,13.69.37,7.34.2,14.94,1.47,22.19,1.07,6.1,4,11.83,9.78,14.69,1.72.86,6.35,2.88,8.33,2.58,2.35-.35-1.27-.43-1.56-.61a8,8,0,0,1-2.74-2.6c-3.74-5.83-4.81-12.84-11.37-16.57-7.55-4.3-11.07,4-9.47,10.34,1.41,5.54,5.79,9.3,10.28,12.44,3.46,2.42,9.56,5.19,10.15,10l5-5c-6.3-.21-9.54-7.28-9.85-12.8-.45-7.93,3.15-15.73,5-23.3L378.05,74c-1.13,8.32-1.7,17,2.69,24.5,3.37,5.8,13.45,10.69,13,17.9l9.82-1.33c-4.5-11.22-1.17-23.7-5.32-35-4.51-12.31-12.09-23.26-9.81-37h-9.64c.47,1.16.85,2.37,1.31,3.54.54,1.33-.21,1.89.37.18l2.3-3-.16.09,3.86-.51c3.61,1.52,1.79,2,2.14-1.64L378.77,43a118.32,118.32,0,0,1,5.67,19.62c1.33,7.26,1.05,14.14.67,21.45a15,15,0,0,0,5.61,12.73c2.29,1.89,12.76,4.87,10.92,8.68L411,108c-.22-1.74-.12-3.75-.5-5.45-.67-3-9,2.4-8.36.12-.2.72.18,1.92.33,1.79l8.36,2.21C408.48,93,408.09,79.06,408,65.19c0-4.82,1.58-11.54-3.53-14.25-4.57-2.41-9.06.64-10.23,5.29-1.54,6.16-.58,13.69-.46,20a205.62,205.62,0,0,1-.29,20.92c-.74,9.09,1.13,22.71,13.31,19.07,6.15-1.84,3.53-11.49-2.66-9.64q-3.15.44.37,1.2c.43.42.21.12-.66-.89.81.32.75-.16-.18-1.46A10.52,10.52,0,0,1,403,102c-.23-4.67.87-9.69.92-14.42s-.1-9.47-.17-14.21c0-1.42-.63-13.87-.23-14.05l-3.85.5-.21-.28L398,56c0,17.85.18,35.68,3.13,53.33.66,4,5.84,4.51,8.36,2.21,3.7-3.38,4.05-11.15.43-14.81a5.34,5.34,0,0,0-7.73,0c-2.72,2.83-1.67,7.9-1.24,11.31.56,4.32,6.9,7.54,9.32,2.52,2.77-5.72,1.83-11.24-2.88-15.63-3.55-3.32-11.4-3.68-12.3-9.18-.59-3.57.6-8.12.51-11.8a83.58,83.58,0,0,0-.93-10.37,114.59,114.59,0,0,0-6.26-23.21,5,5,0,0,0-9.82,1.33c-.4,4.13.77,10.72,5.86,11.37,7.93,1,5.61-8.62,4-12.7s-8.74-5.47-9.64,0c-2.3,13.9,2.25,26.54,8.22,38.93,5.87,12.19,1.91,26,6.91,38.46,2.06,5.15,9.43,4.56,9.82-1.33.49-7.52-4.49-12.69-9.57-17.5-6.77-6.41-7.68-13.26-6.46-22.24.84-6.16-8.08-9.11-9.64-2.66-2.62,10.82-7.75,22.08-4.08,33.3,2.77,8.46,9.39,15.15,18.59,15.46,2.46.09,5.33-2.37,5-5-.85-6.83-4.56-11.2-10-15.12-2.27-1.63-4.74-3-6.9-4.8A14.1,14.1,0,0,1,377.82,95c-.52-.78-1-3.37-1.76-2.64l-3.54,1.47c-2-.25.38.85,1.09,1.69a19.28,19.28,0,0,1,2.56,4.45,58.35,58.35,0,0,0,3.51,7.25c2.91,4.49,7.35,7.38,12.8,6.87,5-.46,9.47-3.94,9.84-9.16.38-5.38-3.68-8.61-8.38-10.09S386,93,384.43,87.7c-1.42-4.77-1.13-10-1.37-15-.36-7.47-.59-15-1.1-22.43-.39-5.88-1.59-11.51-6.2-15.57-4.81-4.24-11.91,2.8-7.07,7.07Z" transform="translate(-2.03 -10.25)"/><path class="cls-2" d="M378,42.57c10.61-.23,20.81-1,29.88-7.08,5.33-3.55.33-12.22-5.05-8.64-7.64,5.09-15.92,5.53-24.83,5.72-6.43.14-6.45,10.14,0,10Z" transform="translate(-2.03 -10.25)"/><path class="cls-2" d="M402.94,126.48c6.44,0,6.45-10,0-10s-6.44,10,0,10Z" transform="translate(-2.03 -10.25)"/><path class="cls-2" d="M396.42,28.17c-5.14,6.08-10.85,12.1-13.54,19.75-1.83,5.22-2.46,17.57,5.27,18.4,7.06.76,11.34-5.18,11.5-11.66.1-3.78-1.48-7.25.78-10.73s6.55-5.67,10.51-4l-3.49-6.15a11.36,11.36,0,0,1-6.23,6.33c-4.76,2.28-2.06,9.1,2.52,9.32,5.9.27,12.6-.3,17.62-3.71a12.37,12.37,0,0,0,5.07-7,13.16,13.16,0,0,0,.21-5.19,10.72,10.72,0,0,0-.4-2.25c-.54-1.5.51-1.3-.55.17l-3,2.3c-3.39.63-.07,2.06-1.69,3.83-.73.81-3.41.61-4.39.68-3.7.27-7.23.63-10.36,2.78-6.93,4.8-8.46,14.58-7.09,22.4,1.51,8.62,10.32,10.25,15.18,2.91,5-7.52,6.66-18.78.53-25.93-2.48-2.89-7.46-1.24-8.36,2.2A55.88,55.88,0,0,0,405,63.66c.77,6.3,10.78,6.38,10,0a48.2,48.2,0,0,1,1.15-18.41l-8.36,2.21c2,2.29.94,5.65.21,8.22a26.44,26.44,0,0,1-1.18,3.59l-.54,1q-1.85,2.23,2.95,2.43c.19-.24-.47-3.91-.46-4.59a16.14,16.14,0,0,1,.64-5.13c1.9-5.72,6.61-4.44,11.42-5.19,4.26-.66,7.89-2.66,9.57-6.83a13.37,13.37,0,0,0-3.36-14.84c-3.54-3.1-9.39-3.28-10.82,2.05-.83,3.12,2.09,7.12-.71,9.34s-8.36,2-11.79,1.83l2.52,9.31a21.21,21.21,0,0,0,10.83-12.3c1-2.74-1.18-5.21-3.49-6.15-7.64-3.13-16.28,1-21,7.4A19.09,19.09,0,0,0,389,48.42c0,2.08.6,4.13.63,6.24,0,.5,0,2.06-.07,1.63s-.16.18,0,.2l3,2.3c-5.2-7.23,6.89-18.75,10.95-23.55s-2.9-12-7.07-7.07Z" transform="translate(-2.03 -10.25)"/><path class="cls-2" d="M406.22,101.15c3.72-4,7.53-7.68,8.51-13.26,1-6-.09-12,0-18,.1-4.82,1-9.52,6.14-10.28,1-.15.11-1,.16,0a7.58,7.58,0,0,1-.54,3.52c-1.24,3-3.83,4.44-6.85,5.05l6.15,3.49c-3.61-9.88,7.66-16.12,15.23-19.57l-7.35-3,1,5.43c1,5.15,8.24,4.36,9.64,0,2-6.31,5.32-12.09,2.07-18.67-2.83-5.72-8.18-9.94-13.78-12.77s-10.79,5.72-5,8.63c3.49,1.77,7.48,4.15,9.4,7.73,2.14,4-1,8.53-2.29,12.42h9.64l-1-5.43c-.66-3.46-4.67-4.21-7.35-3-11.84,5.4-25.14,16.32-19.82,30.87a5.15,5.15,0,0,0,6.15,3.49c8.22-1.66,14.9-9,14.79-17.61-.1-8-6.7-11.89-14.16-10.14-8.39,2-11.68,10.52-12.14,18.37-.28,4.61.46,9.2.35,13.8-.14,5.56-2.37,8-6,11.84-4.41,4.67,2.65,11.76,7.08,7.07Z" transform="translate(-2.03 -10.25)"/><path class="cls-2" d="M412.57,85.21c6.44,0,6.45-10,0-10s-6.44,10,0,10Z" transform="translate(-2.03 -10.25)"/><path class="cls-2" d="M421.2,72.06c13.08,0,25.61-11.5,25-25s-11-25-25-25c-13.07,0-25.6,11.49-25,25s11,25,25,25Z" transform="translate(-2.03 -10.25)"/><path class="cls-2" d="M362,73.39,360.4,92.57c-.52,6.19-1.63,12.65-1.37,18.85.87,21,19.29,34.72,39.66,32,6.9-.9,12.55-2.19,17.68-7.32,4.33-4.33,7.6-11.45,7.32-17.68-.29-6.46-2.41-13.17-7.32-17.67-4.52-4.15-11.29-8.17-17.68-7.33-1.78.24-3.53.28-5.32.38q-4.06-.26,2.79.36l3.74,1.57q8.78,5.7,9.08,15c0-.94,0-1.88.14-2.81.15-2.24.38-4.48.56-6.72L412,73.39c1.08-13.07-12.28-25.57-25-25-14.47.64-23.84,11-25,25Z" transform="translate(-2.03 -10.25)"/><path class="cls-2" d="M387.41,32c-9.62,2.35-19.3,6.36-28.22,10.59-15.45,7.33-20.9,27.67-11.21,41.77A51.1,51.1,0,0,0,354.25,92c1.76,1.7-1.79-2.13-1.77-2.26a18.73,18.73,0,0,0,1.43,2.44c.33.62.6,1.29.94,1.91,1.27,2.31-1.15-2.82-1.1-2.67.49,1.82,1.38,3.66,2.05,5.43,3.38,8.93,7.07,18,14.16,24.71,12.28,11.65,31.28,8.56,40.17-5.43,3.3-5.2,3.84-11.76,4.38-17.67.71-7.8.65-15.67.9-23.49.14-4.43.38-8.85.75-13.27s-1.08,5.69-.49,3.5a12,12,0,0,0,.37-1.78c.34-3.51-2,4.36-1.89,4.15.67-1.15-4,5.06-3.54,4.49q-11,10.5-23,5.39a15.6,15.6,0,0,1-10.72-5.2l-6.43-11,0,.14V48.11q4.38-13.17,16.3-16.65c-.21.07-.42.14-.63.19-.62.11-1.25.32-1.87.46-1.41.31-2.84.55-4.27.79-3.72.65-7.45,1.22-11.13,2A50.36,50.36,0,0,0,355,40.13c-11.38,6.54-14.88,18.32-12.93,30.66L378.8,42.55c-7.32-3.22-14.2-5.42-22.32-3.16-9.1,2.54-15.68,9.8-18.39,18.68-3,9.84,1.24,19.68,5.33,28.39,2.27,4.81,4.92,9.44,7.55,14.06,1.09,1.93,2.21,3.85,3.26,5.79.4.74.76,1.51,1.17,2.24,1.35,2.37-2.77-7.46-2.08-5,1.32,4.75-.29-11.76.09-12.67L364.9,76l0,0,12.62-3.41c5.13.16,14,3.28,16.72,6.67-.29-.37-.7-.67-1-1a35.69,35.69,0,0,0-2.43-2.74q3.36,4.53,1.24,1.2l1.32,3.17c.28,4.21.42,4.87.45,2,.12-1.11.24-2.23.37-3.34a36.74,36.74,0,0,0-1.06-9.93,33.87,33.87,0,0,0-8.64-14.73c-17.34-17-55.53-13.46-62.6,12.13-5,17.94,3.72,40.85,17.73,52.71a135.71,135.71,0,0,0,15.3,10.91c1.76,1.12,3.55,2.21,5.29,3.38.63.42,1.23.9,1.87,1.3-4.22-2.6-8.06-6.09-9.47-12.86V108.15l-.05.16,6.43-11-.16.13,11-6.43c5.92-2,7.88-.54,3.09-1l-6.83-.59c-4-.32-8-.62-12.06-.85a132,132,0,0,0-14.75-.31c-7.48.42-13.92,1.61-19.94,6.26A25.66,25.66,0,0,0,317,133c6.67,6.61,16.53,9.27,25.33,11.73s17.43,4.45,26.23,6.34c9.73,2.09,19.47,3.88,29.36,5.11,5.89.74,13.67-3.32,17.67-7.32,4.34-4.34,7.6-11.45,7.33-17.68-.29-6.46-2.42-13.17-7.33-17.68-5.21-4.78-10.7-6.45-17.67-7.32-2.21-.27,8.45,1.27,4.61.62l-2-.31c-1.57-.26-3.13-.53-4.69-.82-3.89-.71-7.77-1.49-11.63-2.31-8.63-1.81-17.23-3.77-25.74-6.05-3.49-.94-7-1.91-10.39-3.06-3.09-1.05-6.45-3.85,1.84,1A18.25,18.25,0,0,0,347.61,94c10.78,4.23,13.94,25.29,8.26,33-3.77,5.11-8.83,9.28-13.77,10.87,1.12-.36,3.72-.57-2,.19s-2.27.31-.89.23a128.06,128.06,0,0,1,14.13.28c7.46.41,15,1.58,22.43,1.67A25.66,25.66,0,0,0,394,96.41c-4.24-4.36-10.09-7.56-15.21-10.82-2.24-1.42-4.38-3-6.61-4.41-1.35-.86,5.6,4.48,1.5,1.06-.35-.29-.67-.89-1.06-1.06s2.95,4.63.68.89c-1-1.63-2-4.35-3.24-5.71.62.66,1.66,5.39.79,1.4-.16-.77-.35-1.61-.58-2.36-1-3.12,0,5.08.31,1.83.67-6.43-1.12-.87-6.72,6.78l-6.76,9.2c-4.32.52-5.49.69-3.49.52,1,.09,2.13-.12,3.15-.11a9,9,0,0,1,2.53.15c.22.14-6.83-1.61-3.05-.19-6.21-2.33-9.19-6-10.84-12.24-2.26-8.6-1.58-1.71-1.62,1.36a34.19,34.19,0,0,0,1.9,11.9c3.2,8.85,10,19.58,18.77,24.37,7.24,4,15,4.72,22.7,1.47,11.22-4.73,18.09-17.69,14.56-29.68-2.36-8-7.49-15.22-11.43-22.47-1-1.82-2-3.66-2.88-5.51-.45-.92-.85-1.85-1.31-2.76-1.08-2.16,2.68,7.37,1.25,2.91-.23-.7-.43-1.47-.7-2.16-1.31-3.35.63,6.92.56,4.54.26,9.61-7.59,19.57-17.26,22.26a24.11,24.11,0,0,1-12.08.05c2,.52,4.47,1.95-4.24-1.89,9.5,4.19,19.07,4.76,27.76-2,8.53-6.59,10.58-16,9-26.27l-1.15,9q1.23,8.17-4.56,13.47c.74-.7-5.8,4.29-4.11,3.22,2.87-1.8-6.36,2.09-3.5,1.42,1.76-.41,3.48-1,5.25-1.43,3.94-.88,7.94-1.48,11.91-2.18,4.47-.79,8.87-1.83,12.83-4.23,16.33-9.9,16.57-34,0-43.94a25.91,25.91,0,0,0-33.85,6.66c-4,5.2-5.47,10.67-6.31,17a245.59,245.59,0,0,0-1.65,26.43c-.11,4.32-.2,8.66-.48,13,0,.89-.15,1.77-.2,2.65-.23,3.92.9-5,.6-4.2-.18.52-.16,1.12-.33,1.64a2.9,2.9,0,0,0-.14.48c.28-4.6,6.77-12.24,10.8-14L388.06,79q24.06,14.13,16.14,6,3.6,4.89,1.44,1.65c-.64-1.19-1.26-2.63-2-3.77,1.56,3.79,1.84,4.46.87,2-.27-.68-.52-1.36-.77-2-.6-1.58-1.18-3.17-1.8-4.74-1.8-4.58-3.64-9.43-6.31-13.62a63.06,63.06,0,0,0-5.58-7.34c-.6-.71-1.24-1.4-1.89-2.06a18.59,18.59,0,0,1,3.87,6.46V74.9q-3.18,10-11.93,12.71l3.36-1.41c1.69-.7,3.38-1.4,5.09-2.07a95.7,95.7,0,0,1,12.13-3.9c12.71-3.11,21.54-18.17,17.46-30.76C413.89,36.28,401,28.69,387.41,32Z" transform="translate(-2.03 -10.25)"/><path class="cls-2" d="M616,227.94c-12.92,6.42-21.67,20.35-24.42,34.21-2.43,12.28-3.75,27.61,0,39.76,4.86,15.85,18.65,26,34.59,28.82,13.3,2.37,27.45,3.52,40.55-.69a56.76,56.76,0,0,0,38.4-66.36,44.75,44.75,0,0,0-30.13-33c-10.91-3.36-24.82-3.08-36.19-2s-21.11,6.23-26.92,16.42c-3.31,5.82-5,12.84-6.09,19.42-2.63,16.21-1.85,33.76,11.39,45.5,23,20.39,55.54,8.85,77.72-6.33,5.14-3.52,10.57-7.05,14.75-11.7,7.59-8.42,11.83-19.95,8.83-31.26-3.67-13.83-16.19-24.74-27.77-32.31-20.19-13.21-49.47-18.54-71.4-6.57-16,8.72-22.64,24.95-23.73,42.3-.81,13-.82,26.65-.36,39.72.47,13.46,8,25.41,21.62,28.77,8,2,17.24,1,25.46,1,7.42,0,15.42.75,22.68-1.08,13.36-3.38,22.17-14.24,22.64-28,.45-13.09-11.82-25.59-25-25-13.93.62-24.52,11-25,25l0,1L641,292.94q19.29-10.92,11.27-8.76-1.93.46,1.56-.18c5.17-.8-.53-.34-1.76-.34l-9.77,0-8.79,0h-6.84q-7.66-.27,7.23,2.54l9,9,2.35,8.78,0-3.93,0-5.9.06-9.83q0-5.89.07-11.79c0-3.13.65-6.74.29-9.84l-.51,3.53a29.35,29.35,0,0,1,.64-3c.7-5.1-2.75,4.8-.22.32,2.64-4.7-4,4.06-.39.74-4.56,4.21-3.45,2.44-1.84,1.55,4.31-2.4-5.9,1.52-1.06.3a19.41,19.41,0,0,0,4-1l-3.88.49q1.39-.15,2.79-.21c1.4,0,2.8,0,4.19.06l1.37.1c2.74.3,2,.2-2.07-.28.75.6,3.52.71,4.5,1,2.49.64,4.84,1.73,7.31,2.38-6.27-1.66-2.3-1-.39,0q2.05,1.06,4,2.27c.49.31,3.36,2.68,3.82,2.58-1.28.28-4.43-3.78-.28-.05q1.71,1.54,3.3,3.22c1.51,1.59,2.93,4.93.17-.24-2.43-4.56,3.92-21.95.07-15.73.23-.37,3.14-5.25,1-1.75l-1.14,1q4.74-3.63,1.33-1.17c-1.4.92-2.75,1.92-4.13,2.85-2.8,1.88-5.63,3.71-8.57,5.37-1.45.82-3,1.53-4.42,2.35-5,2.76,5.29-1.57-.09.07-.74.23-7.6,1.69-7.83,2.11l3.44-.49c-1.08.09-2.17.14-3.26.13-5.37.53,5.35,1.83.6.22s4.07,2.49,1.16.7q-2.46-1.41,2.12,1.81,3.34,4.9,1.32,1.56l1.46,3.26q-.88-4,.14,2.27c.36-.65,0-3.7,0-4.51-.12-5-.91,4.17-.19.59.3-1.51.53-3,.89-4.52a55.3,55.3,0,0,1,1.48-5.33l-1.47,3.28q-5.07,7.28-14.85,8.22c3.32.39,7.08-.09,10.42-.13s6.65.05,10,.06c4.59,0-1.75.12-1.93-.33l1.53.34q3.82,1.22-1.63-.87c4.75,2.32-3.79-3.95-.38-.22l-2.12-2.71a22.72,22.72,0,0,1,1.45,2.6c-2.53-1.24-1.47-4.89-1-1.77,1.11,7,.46-4,.09.36l0,1.4q-.28,4,.47-2.47a21.12,21.12,0,0,0-1,4.08c-.8,3.76.47-1.56,1-2-.7.63-1.55,2.82-2,3.7-2.26,4.35,4.1-3.95.51-.61a20.92,20.92,0,0,0-3,2.88c2.5-3.94,3.82-2.43,1.63-1.49a32.6,32.6,0,0,1-2.93,1.53q5.21-2.12,1.37-.79c-.33.06-4.8,1-4.81,1.09,3.92-.48,4.48-.6,1.7-.36-.84.06-1.67.08-2.51.09q-2.1,0-4.2-.09c-1.13-.06-2.25-.15-3.37-.26q-4.17-.48,1.65.24c-.33-.57-7.75-2-9.06-2.16l3.23,1.29q-3.35-2.09,1.48,1.29c2.21,3.22,2.66,3.7,1.33,1.47q2.21,5.64,1.12,1.81c1.55,7,.34,2.76.29.63,0-1.52,0-3,.06-4.56.06-1.73.12-3.46.22-5.19.06-1.15.14-2.3.25-3.45q.45-4.2-.2,1.52c.37-.52.54-2.57.75-3.35.28-1,.61-2,1-3q-2.45,5.51-.64,2c2.68-4.43-4.21,3.86-.44.36q2.87-2.67-1.75,1.12a17.36,17.36,0,0,1,2.54-1.39c11.74-5.83,15.94-23.39,9-34.21-7.75-12-21.65-15.2-34.21-9Z" transform="translate(-2.03 -10.25)"/><path class="cls-2" d="M695.59,229c1,6.58.17.84.08-.75-.11-1.85-.14-3.71-.13-5.57,0-3.74.24-7.48.49-11.21.46-7,1.12-14,.85-21-.7-17.61-5.54-34.43-17.61-47.66-2.8-3.07-4.23-6.44-.42,3a9.66,9.66,0,0,1,1.91,9.36q1.07-3.13,0-.19t.28-.06q.66-1.17,1.35-2.31,1.38-2.31,2.82-4.56,2.88-4.51,6-8.85L692.8,137q-2.88,3.69-1.18,1.53c1.14-1.38,2.24-2.78,3.39-4.15,9.82-11.63,22.66-21.51,29.24-35.55,2.91-6.21,4.41-12.42,2.52-19.26-1.6-5.8-6.08-12.09-11.49-14.94-11.08-5.86-28.28-3.68-34.2,9a44.16,44.16,0,0,1-2.75,5.06c-3.38,5.28,2.82-2.72-.55.87-2.28,2.44-4.51,4.92-6.85,7.31a212,212,0,0,0-15.22,17c-12.23,15.5-29.08,35.7-23.14,56.84a37.38,37.38,0,0,0,10.84,16.82c3.38,3.09-2.71-4.58-.2-.4A33.77,33.77,0,0,0,645.4,181q-2.22-5.59-.79-1.86l.48,1.42a49.65,49.65,0,0,1,1.34,5.1c1.3,6.21-.18-4.91.14.15.09,1.53.25,3.05.31,4.59.29,7.65-.51,15.29-1,22.92a132.59,132.59,0,0,0,1.48,29c.89,5.78,6.67,12.12,11.49,14.94,5.36,3.13,13.25,4.46,19.26,2.52S690,254,693.07,248.25c3.34-6.32,3.61-12.25,2.52-19.27Z" transform="translate(-2.03 -10.25)"/><path class="cls-2" d="M706.4,245.84c.22,1.66.32,4.44.37,1.23,0-1.5,0-3,.05-4.5,0-.78.6-4.78,0-1.16-.69,4,.27-1.21.45-2A115.37,115.37,0,0,1,712,223.53c3.91-10.71,8.29-21.26,12.47-31.86L675.37,185a80.53,80.53,0,0,1,.34,14.89c-.09,1.28-.06,7.53.08.78a42.76,42.76,0,0,1-1.32,7.39,280.91,280.91,0,0,1-7.66,27.28l49.1,6.65c0-3.45.07-6.89.3-10.33.11-1.72.31-3.44.43-5.15.36-4.77-.66,3.84-.14.66a161.43,161.43,0,0,1,4.24-19.34c.89-3,1.89-6,3-9,.39-1.07.73-3.17,1.54-4q-2.13,5-.5,1.21l.71-1.57a144.61,144.61,0,0,1,10-18.07c6.78-10.48,3-25-6.44-32.25-9.63-7.44-24.09-7-32.82,2-.7.75-1.41,1.46-2.16,2.15q-3,2.6,1.39-1a21.46,21.46,0,0,1-2.63,1.53,14.77,14.77,0,0,1,12.59-1.46c5.18,1.51,14,9,12.19,15.77a17.09,17.09,0,0,1,0-2.58q-1.05,6.68-.28,2.74c1.09-3.59,2.25-7.09,3.54-10.61q1.54-3.81-.53,1.2c.47-1.05.95-2.09,1.44-3.13q1.49-3.11,3.15-6.12a119.42,119.42,0,0,1,7.3-11.68c.49-.7,1-1.4,1.51-2.09q1.66-2.22-1.28,1.65c1.06-2.47,5.83-7.23,6.92-8.75,9.47-13.29,9.68-30.61-1.88-42.74v35.36l.93-.8-11,6.43a17.61,17.61,0,0,1-12.88-1.2l2.49,1.43c5.68,3.26-2.81-3.44.27,0a45.74,45.74,0,0,0,4.5,4.19c5.79,4.86,11.91,9.38,18.12,13.7,10.81,7.51,21.77,14.23,33.9,19.34l6.65-49.1c-24.58-.54-55-8.19-71.11,16.53-9,13.83-12.6,30.62-17.54,46.16q-3.64,11.43-8.12,22.56c-.34.85-.69,1.71-1,2.56q2-4.69.37-.87c-.75,1.69-1.48,3.38-2.24,5.06q-2.67,5.88-5.56,11.65c-5.82,11.69-3.51,27.61,9,34.21,12.08,6.38,27,3,34.2-9,9.59-16.05,18.94-32.28,28.83-48.15,2.15-3.44,4.36-6.84,6.73-10.14.51-.7,1-1.4,1.54-2.09q1.66-2.22-1.25,1.64c.45-1.63,3.38-4,4.54-5.2s2.41-2.47,3.68-3.65c.82-.75,1.65-1.49,2.51-2.2q-4.46,3.32-1.22,1c1.36-.89,2.69-1.82,4.09-2.65.93-.55,1.88-1.07,2.84-1.56q3.66-1.75-1.56.5c0,.05,4.82-1.65,5.32-1.78.77-.22,1.54-.41,2.32-.58q4.1-.74-1.94.16c.59.43,4.64-.08,5.53-.13,3-.16-6.45-.82-.62-.07,2.84.37-7-3.7-2.88-1.19.73.45,1.49.84,2.23,1.29,2.06,1.25,4,2.68,6,4.09,3.34,2.39-5.41-4.33-.44-.34.94.75,1.87,1.52,2.8,2.29,2.12,1.77,4.21,3.59,6.26,5.44,1.82,1.65,3.61,3.33,5.34,5.06,2,2,7.13,8.52.52-.16,4.12,5.41,8.12,9.61,14.94,11.49,6,1.65,14,.91,19.27-2.52,10.24-6.6,17.44-23.08,9-34.2a127.7,127.7,0,0,0-21.35-21.62c-8.5-7-18.47-15.75-29.63-18.11-18.23-3.86-38,.67-53.22,11.41-14.44,10.21-25.16,23.71-34.46,38.64-9.89,15.87-19.24,32.09-28.83,48.14l43.17,25.24a380.87,380.87,0,0,0,19-45c2.36-6.81,4.4-13.7,6.45-20.6,1-3.33,2-6.65,3.12-9.93.34-1,.88-4.18,1.78-4.87q-2.18,5-.5,1.22c.35-.79.73-1.56,1.12-2.33.77-1.54,1.72-3,2.49-4.53q2-3.15-2.53,3.09,1.71-1.65-1.35.9c-5.22,4,3.37-1-2.61,1.5-4.63,1.92-1,.49.1.19,1-.27,2-.39,3-.63,2.45-.6-7.41.52-2.25.4,2.38-.05,4.75-.18,7.14-.14,9.07.18,18,1.67,27.11,1.87,12.45.27,22.94-9.73,24.55-21.68.72-5.33,0-11.29-3-15.94-3.77-5.86-8.58-8.81-14.94-11.49-.47-.2,6.78,3.21,4.16,1.71-.56-.32-1.18-.58-1.76-.88-1.09-.55-2.16-1.14-3.22-1.74-2.91-1.62-5.76-3.35-8.58-5.11-6.15-3.85-12.17-7.89-18-12.18-.62-.46-1.24-.93-1.86-1.38-2.74-2,2.38,1.68,2.43,1.9-.2-.79-2.73-2.19-3.46-2.8-1.83-1.56-3.44-3.29-5.17-4.94-5.36-5.08-12.31-8.75-19.14-11.36-10.88-4.17-21.79-.75-30.32,6.58-10.42,8.95-8.76,26.16,0,35.36l-5.57-13.6a10.62,10.62,0,0,1,1.17-6c1.09-3.56.2-1-.35,0-1.33,2.54,3.86-4.78.78-1-.72.89-1.43,1.79-2.14,2.7a160.51,160.51,0,0,0-12.15,17.15,134.31,134.31,0,0,0-14.45,33.07c-4.36,16.14-.66,33.83,14.17,43.22,16.33,10.34,35.78,2.08,48-10.47l-39.26-30.3A167.46,167.46,0,0,0,665.91,242a25,25,0,0,0,21.68,24.55c12.51,1.68,23.61-5.93,27.43-17.91,6.5-20.39,12.77-42,10.35-63.63-1.4-12.51-8.45-22.78-21.68-24.56s-22.79,6.15-27.43,17.91-9.62,23.4-13.71,35.34a99.64,99.64,0,0,0-4.3,16.83,91.62,91.62,0,0,0-.07,28.58c.78,5.73,6.76,12.17,11.49,14.94,5.36,3.13,13.26,4.46,19.27,2.52s11.88-5.71,14.94-11.49c3.36-6.37,3.48-12.2,2.52-19.26Z" transform="translate(-2.03 -10.25)"/><path class="cls-2" d="M682,371.17c-30.44,18.05-46.7,51.32-52.75,85.15-6.44,36-8.05,73.35-6.46,109.88.52,12,.66,24.2,5.7,35.33,6.45,14.26,24.75,23.49,39.92,18.05,12.28-4.4,21.84-17.23,17.46-30.75-3.91-12.1-17.57-22.18-30.75-17.46,6.58-2.36,14.46,2.33,17.86,7.62q-1.91-3.53.75,1.85-.87-4,.09,2.16c.6-3.87-.65-9-.85-12.87q-.73-14.75-.69-29.52a542.77,542.77,0,0,1,3.21-57,48.12,48.12,0,0,1,.84-7.2l-.42,3c.17-1.2.34-2.39.52-3.59.73-4.78,1.58-9.54,2.63-14.25.91-4.12,2-8.2,3.24-12.22q1.07-3.45,2.34-6.83l.65-1.69q1.66-4.08-.62,1.45c1-.7,2.09-4.39,2.71-5.57q1.45-2.75,3.07-5.4,1.22-2,2.52-3.9c.59-.85,1.18-1.69,1.8-2.52q-3.54,4.5-1.05,1.41a99.25,99.25,0,0,1,7.43-7.78c.76-.68,1.54-1.35,2.33-2q-4.61,3.45-1.41,1.1c1.71-1.13,3.4-2.28,5.17-3.33,11.25-6.67,16.32-22.8,9-34.2S694,364,682,371.17Z" transform="translate(-2.03 -10.25)"/><path class="cls-2" d="M702.94,561.82l.07-45q0-10.77,0-21.53c0-3.82,0-7.64.19-11.45.08-1.58.28-3.17.33-4.75.2-1.91.09-1.27-.31,1.93.14-.94.31-1.88.51-2.81a62.9,62.9,0,0,1,2.34-8.42c.26-.74.53-1.46.81-2.19.69-1.77.35-1-1,2.38.75-.59,1.23-2.69,1.64-3.54,2.64-5.42,5.71-10.63,8.78-15.82,7-11.77,13.66-23.81,17.43-37l-49.11-6.65,3.06,79.22,1.54,39.6c.25,6.59.3,13.23.76,19.8.85,12.09,4.85,22.59,15.7,29.08,15.91,9.52,36.22,1.09,47.51-11.67,8.9-10.06,14.11-21.73,18.66-34.25,4.73-13,8.95-27.11,7.91-41.1-1.09-14.5-6.42-27.6-13.88-40-3.13-5.19-6.51-10.23-9.52-15.5q-2.45-4.26-4.54-8.69a33.66,33.66,0,0,1-1.84-4.06c2,6.33.3.51-.13-.65a128.49,128.49,0,0,1-5.34-18.85c-.35-1.75-.63-3.51-1-5.27-.94-5.14.45,5.23,0-.42-.3-3.56-.55-7.1-.64-10.68l-31.65,24.11c19.2,6.22,35.56-7.27,44.45-22.95.46-.81,1-1.6,1.42-2.43,2.25-4.1-2.85,3-1.06,1.23q2-2.07-2.57,1.76l-3.59,1.35-3.41.31q3.3.14,0-.26t0,0l1.68.26c3,.44,6,.94,9,1.15a46,46,0,0,0,9.51-.68c25.53-3.43,42.77-24.69,55.67-45.16l-45.7-6,5.5,20.94c2.29,8.75,4.74,17.4,11.52,23.88,8.29,7.92,18.48,9,29.29,9.05,1.54,0,3.07.15,4.61.21,5.4.18-5.84-1.22-.53-.09,2.82.59,5.62,1.14,8.4,1.89,25,6.67,50.1,19.24,76.32,9.53,12.23-4.53,21.87-17.14,17.47-30.75-3.88-12-17.63-22.32-30.76-17.46-2.21.81-5.11,1-7.19,2,.79-.38,5.83-.47,2.3-.35-1.22,0-2.42.11-3.64.1s-2.44-.13-3.66-.16c-4.48-.13,4.59.87,1.5.25-2.23-.46-4.46-.85-6.67-1.4-9.95-2.47-19.5-6.3-29.33-9.16-10.74-3.12-22.94-5.75-34.17-4.55-1.38-.06-1,0,1.1.19q7.77.4,12.51,8.35c.43.77,1.76,5.43,1,2.18-.71-3-1.58-6-2.36-8.94l-5-19c-2.52-9.61-11.17-16.62-20.79-17.91A25.25,25.25,0,0,0,779.23,317c-2.22,3.54-4.65,6.92-7,10.38-1.7,2.52,4-4.88.71-.91-.63.77-1.26,1.54-1.91,2.29-1.28,1.49-2.62,2.94-4,4.33-.86.85-1.74,1.67-2.64,2.47-.64.57-3.37,2.74-.22.31s-1.6.94-2.65,1.54a24.61,24.61,0,0,0-3,1.54c.71-.55,5.41-1.84,2.2-1.11-.2.05-2.59.71-2.6.66s7.22-.51,1.92-.36c-.93,0-1.87-.09-2.79-.06-2.92.1,5,.8,1.74.24-4.09-.69-8.34-1.52-12.49-1.4a37.42,37.42,0,0,0-24.84,10.29c-4,3.82-7.11,8.67-9.81,13.49-.45.8-.92,1.6-1.36,2.42-1.51,2.81.41-.47,1.21-1.35-1.53,1.45-1.45,1.49.25.1a6.05,6.05,0,0,1,3-1.64c2.67-1,6.82-1.68,9.57-.8-15.29-4.95-32,8.39-31.65,24.11A157.82,157.82,0,0,0,711,453.45c4.55,8.63,10.32,16.54,15,25.12.28.52,3,5.79,2.89,5.84s-2.1-5.61-.47-.71q.52,1.53.93,3.09c.28,1,.45,2.12.71,3.16.81,3.16.15-6.35-.19-.49-.07,1.23,0,2.5,0,3.74,0,.91-1,6-.12,2.26,1-4.15-.5,1.9-.57,2.23-.28,1.24-.6,2.46-.93,3.68-.67,2.45-1.43,4.87-2.24,7.28s-1.55,4.51-2.37,6.75c-.42,1.15-.84,2.31-1.29,3.45-1.46,3.81-.54.35.57-1.16-1.21,1.65-1.91,4.17-2.89,6-.65,1.2-3.37,4.39-3.43,5.59,0-.54,4.09-4.53,1.24-1.68-.66.66-1.33,1.38-2,2.06-1.34,1.45-3,1.5,1.79-1.14a21.39,21.39,0,0,0-3.53,2.2c1.09-1.56,6.55-2.08,7.66-2.06l4.24.67,14,17.8c.31-2.36-.22-5.14-.32-7.53L739,520.78l-1.35-34.65-3.06-79.22c-.49-12.5-9.15-22.87-21.68-24.55a25,25,0,0,0-27.43,17.91c-.43,1.5-.87,3-1.39,4.48-.6,1.71-2.93,5.8.23-.16-1.47,2.76-2.66,5.68-4.14,8.44-2.74,5.11-5.76,10.06-8.69,15.06-7,12-13.94,24.88-16.32,38.68C652.4,483,653,499.42,653,515.82l-.07,46c0,13.08,11.51,25.61,25,25s25-11,25-25Z" transform="translate(-2.03 -10.25)"/><path class="cls-2" d="M773.26,456.47l34.31-49.23c6-8.69,3.75-23.26-3.91-30.3-8.54-7.83-20-9.16-30.3-3.9a143.87,143.87,0,0,0-47.08,38.4c-6.74,8.51-10.38,20.27-3.91,30.29s16.86,13.63,28.23,11.49a328.21,328.21,0,0,0,102.79-38.36l-37.61-21.59c0,1.45-.83,5.14-.28,6.36.59-4,.65-4.7.17-2l-.33,1.53a57.5,57.5,0,0,1-1.75,6q-.37,1.13-.81,2.22-1,2.64,1-2.32c-.93.13-4.38,8.5-5.26,10-2,3.28-4.1,6.47-6.3,9.59-9.23,13.06-19.37,25.4-28.28,38.7-19.34,28.87-34.84,59.95-47.39,92.32-3.81,9.81,2.45,23.46,11.49,28.23,9.8,5.18,22.27,4.23,30.29-3.91l89.23-90.57c8.51-8.64,17.87-17.19,21.61-29.14a48.31,48.31,0,0,0,1.68-18.21c-.18-2.27-.19-4.56-.35-6.83q.3-4.1-.35,2.23a24.93,24.93,0,0,1,.77-2.85q1.37-3.74-.8,1.88c.45-.89.94-1.75,1.47-2.59q2.24-3.24-1.25,1.42c.65-.77,1.32-1.52,2-2.24s1.44-1.42,2.2-2.09q3-2.52-1.48,1.12c.64.15,4.88-2.87,5.58-3.28q3.72-1.74-1.23.43c1.07-.42,2.16-.8,3.25-1.16,2.21-.72,4.44-1.32,6.7-1.85,4.53-1.06,9.13-1.77,13.74-2.4l-31.65-24.11a138.06,138.06,0,0,1,.17,24.9c-.16,1.92-.37,3.83-.57,5.74-.61,5.84.78-4.34-.15,1-.71,4.13-1.39,8.25-2.23,12.36-1.6,7.91-3.49,15.76-5.41,23.59-.93,3.84-1.85,7.68-2.94,11.48-.58,2-1.31,4-1.89,6-1.41,4.85,2.28-4.21-.2.68a85.48,85.48,0,0,1-5.24,9c-.83,1.24-1.82,3.32-3,4.26q3.22-4.11.69-.91l-1.64,2c-4.4,5.4-8.83,10.79-13.46,16A189.6,189.6,0,0,1,828.36,531c-4.19,3.77,4.55-3.13-.06.1-1.34.94-2.65,1.87-4,2.75a75.11,75.11,0,0,1-10,5.37L851,567.43q10.49-39,23.44-77.35l-49.11-6.65c-.12,3.95-.33,7.88-.69,11.81-.11,1.2-.85,7.3-.33,3.41s0-.1-.17.86c-.18,1.12-.37,2.23-.58,3.34a136.16,136.16,0,0,1-6.5,23.54,14.18,14.18,0,0,1-1.24,3.12c.24-.26,2.52-5.48.51-1.36-.74,1.5-1.44,3-2.21,4.51a104.35,104.35,0,0,1-6.92,11.48c-.48.69-1,1.36-1.46,2.06-1.92,2.82,3.17-3.78,1-1.32-1.2,1.37-2.34,2.79-3.58,4.13a90.22,90.22,0,0,1-8.5,8.09c-.59.49-1.26.95-1.82,1.48,4.15-4,2.69-2,1.3-1.09s-3,2.06-4.55,3-3.12,1.88-4.72,2.73c-1.34.72-4.82,1.6-5.59,2.73.25-.37,5.76-2.17,1.67-.77-.73.25-1.45.53-2.18.78-1.7.58-3.43,1.1-5.17,1.56s-3.49.84-5.25,1.17c-1,.18-4.51.75-.48.13s.38-.11-.5-.05q-2.7.19-5.4.18c-1,0-7.48-.46-2.68,0l2,.26q-4.08-1.23,2.47,1.92l3.81,2.25,5.58,12.45c-.74-3.35.19.71-.32,2a18.73,18.73,0,0,0,.58-3.44,193.71,193.71,0,0,1,6.34-25.35c1.43-4.43,3.08-8.76,4.76-13.11.74-1.91,2.1-2.49-.5,1.15a19.36,19.36,0,0,0,1.42-3.18c1-2.12,2-4.21,3-6.29a199.9,199.9,0,0,1,15.23-25.38l-45.69-6q1.07,5.68,2,11.39c.1.65,1.24,5.42.86,5.72,0,0-.62-4.88-.25-1.87.15,1.27.32,2.55.47,3.82q1.41,12,2.07,24,.68,12.51.52,25c-.15,11.58-2.94,24.59,4.63,34.4,10.8,14,31,13.78,43.65,2.59,9.09-8,10.88-19.77,11.09-31.22q.45-25.11-.84-50.22c-1.75-33.94-1-82.67-39.58-96.58-21.47-7.74-43.23,6.87-51.44,26.34-7,16.49-6.06,36.39-7.3,54l-1.93,27.61c-.24,3.47.32,8.36-.89,11.66-.19.5,1.22-6.12.42-3.45-.24.81-.32,1.71-.52,2.54-.24,1-.51,3.52-1.28,4.24-.22.21,2.2-5.47,1.25-3.2-1.48,3.52.59-.57,1.55-1.72-.58.7-2.42,2.07.8-.46,4.34-3.39-2.54.72,2.43-1.53a12.66,12.66,0,0,1,5.41-1.29c1.08,0,5.42,1.22,2.12.17a19.14,19.14,0,0,1,4.44,2.26c3.38,2.07-1.16-2,1.12,1.19,2.14,3,.4.59.16,0-1.38-3.32.59,1.16.6,1.87,0-1.41-.95-3.68-1.36-5.08-.75-2.54.33,2.92.34,2.9a28.3,28.3,0,0,0-.26-3.05c-.13-2-.18-4.07-.24-6.11a25.16,25.16,0,0,0-15.36-22.84c-8.58-3.62-20.9-2.42-27.31,5.17C680.51,542,670.49,565.2,673,588.47c1,9.1,3.46,17.41,10.2,24,6.93,6.77,15.87,9.11,25.24,9.83a218.74,218.74,0,0,0,32.58-.38c10.16-.74,18.76-5.69,22.85-15.37s1.66-19.68-5.17-27.31C735,552.82,692,543.91,660.39,560.91c-11.61,6.25-19.19,19.26-18.32,32.45.81,12.37,7.63,20.91,16.32,29q2.52,2.77-1.63-2.14,1.82,3.45-1-2.52c-2.53-9.23,5.16-19.7,14.06-22.44q-3.87.93,3-.21a18.51,18.51,0,0,1-2.47,0q6.87,1.13,3,.33l-1.2-.34q-3.65-1.31,2.49,1.09a23.63,23.63,0,0,1-2.17-1.27c3.33,2.72,4,3.24,2.1,1.58l-.9-.88q-2.53-2.87,1.57,2.14a19.91,19.91,0,0,1-1.25-2.14q2.4,6.18,1.22,2.5-.82-3.87.35,2.94l-49.1,6.65c9.6,42.33,66.86,70.54,100.12,35.49,1.34-1.41,2.75-2.76,4.12-4.14.5-.5,2.71-2.34-.11,0s-.21.29.64-.24c1.54-1,3.16-1.74,4.74-2.61s3.52-.63-1.69.64c1-.24,2-.76,3-1.1,7.89-2.78,16.15-4.55,24.3-6.39,4.42-1,8.86-1.85,13.32-2.66,4-.73-.82-.17-.91.08a15.5,15.5,0,0,1,2.88-.31c2.87-.27,5.76-.44,8.65-.44,2.17,0,4.35.07,6.52.25,5.64.47-4.37-1,0,0,1.71.39,3.42.74,5.11,1.21,1.28.37,7.09,2.59,3.35,1-4-1.73,1.46.81,2.35,1.31,2.13,1.2,5.7,4.92,1,.19,1,1,2.23,1.89,3.26,2.92a18.36,18.36,0,0,0,2,2.15c-1.06-.12-3.43-5-.8-.86.37.58,2.74,5,2.69,5-.36.13-2-6-.76-1.46.22.78.49,1.55.72,2.33.52,1.83,1,3.68,1.32,5.55a27.9,27.9,0,0,0,.55,3.23c-.37-1.14-.58-5.22-.27-1.75a235.12,235.12,0,0,1,1,26.28q-.13,6.24-.62,12.46-.29,3.56-.67,7.11c-.09.88-.22,1.77-.3,2.65-.34,3.48,1-6.35.06-.45a238,238,0,0,1-13.54,50.72c-.33.83-.67,1.65-1,2.48-1.69,4.23.31-.43.44-1-.42,1.92-1.73,3.9-2.57,5.69-2.49,5.3-5.62,10.59-7.16,16.25a32.11,32.11,0,0,0,22.83,39.43c17.38,4.74,32.35-6.66,41.5-20.2,5.77-8.53,11.13-17.38,16.43-26.2q16.42-27.34,30.69-55.9L853,693.67c-.18,2.91-.46,5.8-.75,8.7-.62,6,1-5.71-.08.28-.21,1.14-.39,2.29-.61,3.44A147.42,147.42,0,0,1,847,723.87q-1.32,4.15-2.9,8.24c-.62,1.6-1.14,5.29.21-.31a23.69,23.69,0,0,1-1.8,4,154.84,154.84,0,0,1-8.8,16.09c-5.63,9-4,23,3.91,30.3a29.84,29.84,0,0,0,11,6.43c6.76,2.18,13.13.12,19.27-2.53,30-12.92,48.42-45.87,53.42-76.93,3-18.72,3.16-37.29,2.5-56.18-.07-1.91-.17-3.82-.21-5.73,0-.94,0-1.87,0-2.8l-.6,3.89a18.22,18.22,0,0,1-7.73,9.53c-3.88,1.46-4.56,1.82-2,1.09,1.92-.35,1.85-.36-.23-.05s-2.16.29.1.07c2,0,4-.13,6,0,6.56.35-3.95-1.14,1,.1,1.68.41,3.34.78,5,1.29,1.09.35,2.17.73,3.24,1.15q-5-2.16-1.26-.4c9.21,4.55,19.38,4.52,27.76-2a25.27,25.27,0,0,0,9-26.28q-9.63-39.63-19.25-79.25c-3.08-12.69-5.48-25.82-9.32-38.3-3.42-11.09-10.54-18.69-21.14-23.16-6.66-2.81-13.34-5.58-20-8.37-9-3.76-24.35,2.31-28.23,11.49-5.2,12.32-8.27,24.78-6.85,38.28a154.21,154.21,0,0,0,8.28,35.21c3.44,9.85,7.24,19.6,9.85,29.71.63,2.46,1.2,4.94,1.66,7.44.41,2.25-.2,6-.09-1.25,0,1.1.23,2.26.31,3.36a62.83,62.83,0,0,1,.06,7.39c-.17,2.91-1.58,4.32.32-1.29-.42,1.24-.51,2.71-.8,4l41.78-11c-3.57-4-7-8.13-10.38-12.31-1.94-2.4-.49-.36.62.82A37.49,37.49,0,0,1,908,592c-1.59-2.17-3.14-4.35-4.67-6.56a274.29,274.29,0,0,1-16.62-27.57c-8.74-16.55-34.29-16-43.18,0-13.37,24-23.46,52.32-24.08,80.08-.36,15.62,3.86,30.9,13.43,43.29,10,12.9,25.14,21.32,41.7,21,6.2-.1,13.39-2.65,17.68-7.32,4.77-5.2,6.52-10.72,7.32-17.68,3.6-31,1.33-62.59-5.65-93-2.78-12.13-15.69-19.49-27.43-17.91a25,25,0,0,0-21.68,24.55,392.87,392.87,0,0,0,5.44,62.48c1.56,9.58,12,16.73,20.79,17.91,9.57,1.29,20.12-3.14,24.91-11.94a134.71,134.71,0,0,0,14.82-41.43L880,635.36c.64.18,1.27.39,1.89.62q2.73,1-2.92-1.27a33.92,33.92,0,0,0,3.49,1.83c.94.56,1.81,1.24,2.75,1.79,2.51,1.46-4.38-4-1.45-1.06.94.93,1.93,1.79,2.84,2.75,1.82,1.93,2.22,4.16-.51-1,1.12,2.12,2.75,4,3.88,6.16.51,1,.87,2.06,1.45,3-3.25-5.23-1.43-3.48-.67-1,.4,1.26.73,2.54,1,3.83.22,1,.84,5.14.2.57s-.16-.47-.12.61c0,1.32-.07,2.62-.07,3.94,0,4.67,1.46-6,.19-1.44-.36,1.28-.62,2.57-1,3.84l45.69-6a327.65,327.65,0,0,1-24-36.52q-5.26-9.33-9.91-19-2.32-4.83-4.47-9.74c-.36-.82-.72-1.64-1.07-2.46q1.86,4.44.79,1.86c-.78-1.94-1.57-3.86-2.33-5.8-3.94-10-12.39-18.88-24.11-18.36s-20.18,7.56-24.11,18.36c-5.06,13.93,5,30.26,18.82,34.06,12.36,3.4,26.32-1.27,32.78-12.83,4.27-7.63,4.75-15.7,5.46-24.24l1.61-19.63-31.64,24.11c11.26,4.59,24.5,2.39,35.11-2.8,11.13-5.44,18.21-15.1,22.39-26.46l-49.11-6.64c1.07,24.6,6.88,47.5,16.72,70,3.92,9,16.13,13.11,24.91,11.93,9.32-1.25,18.66-8.26,20.78-17.9,4.59-20.93,10.38-41.62,16.5-62.14,3.16-10.58,6.44-21.12,10-31.57,1.41-4.09,2.86-8.17,4.41-12.2.54-1.4,3-7.47.8-2.15-2.15,5.09.16-.3.85-1.7.53-1.06,1.19-2.07,1.71-3.13,1.55-3.11-3.85,4.73-2.9,3.69l.25-.25a24.75,24.75,0,0,1-10.35,6h-6.45q-9.86,1.6-17.14-6.23a30.14,30.14,0,0,1-6.07-10.39c.13.35.17.72.27,1.08-2.52-9-.61-5.91-.69-1.92l25-25c-3.82-.18,1.3.25,2.35.44-3.65-.67,3.95,2.26,2.81,1.36a17.33,17.33,0,0,0-2.81-1.61c-6.68-3.54-13.39-4.81-20.91-5.05-2.26-.07-4.5-.24-6.75-.33-1.4-.14-1.12-.1.82.12q3.32.48,0-.17l-1.6-.46,2.87,1.29a9.94,9.94,0,0,0-2.46-1.46c.78.25,4.33,3.37,1.86,1a8.71,8.71,0,0,1,2.94,4.45q1.05,2.93.5,1.05c-.69-2.41.13,6.43.64,1.84l-25,25,44.56-.22A25.23,25.23,0,0,0,983,479.37c4.07-7,5.26-18.41,0-25.24a223,223,0,0,1-22.32-35.2q-2.37-4.65-4.5-9.41c-.73-1.6-3.59-5.78-.24-.42a29.42,29.42,0,0,1-1.93-4.84c-2.5-6.5-4.66-13.11-6.55-19.81-3.56-12.58-17.85-21.64-30.76-17.46s-21.27,17.27-17.46,30.75a241.88,241.88,0,0,0,40.58,81.63l21.59-37.62L916.8,442c-6.15,0-13.44,2.7-17.68,7.32-4.76,5.18-6.54,10.72-7.32,17.68-2.49,22.32,18.6,38.92,38.56,41.6a115.28,115.28,0,0,0,11.74,1.05c2.7.09,6.09,1.35-.67-.4,4,1-5.13-3.09-2.44-1.16,6.49,4.65,14.75,6.08,22.51,6.44,13.69.64,24.75-12,25-25a37.89,37.89,0,0,0-4-18.63c-6.38-12.24-23.86-16.9-35.5-9.46-10.15,6.5-14.09,17.33-18.31,28-8.86,22.39-15.47,45.8-21.87,69-3.54,12.84-6.93,25.73-9.78,38.73l45.69-6q-1.66-3.81.36.86c-.46-1.14-.91-2.29-1.34-3.45q-1.31-3.47-2.44-7c-1.31-4.12-2.47-8.28-3.44-12.49-.91-3.93-2.42-8.65-2.4-12.73,0,7.13,0-1-.17-2.54-.22-2.46-.35-4.93-.46-7.39-.54-12.5-9.1-22.87-21.68-24.56-12.91-1.73-23.07,6.07-27.43,17.91,2.42-6.55,1.7-3.7.63-2-1.59,2.49,4-4.62,1.15-1.68s4.05-2.8,1.6-1.21-2.35-.23,2-.56a10.66,10.66,0,0,0-2.41.75c-4.26,1.57,4.88-.66,2.3-.31-4.95.67,2.37.46,2.3.53-.43.35-3.21-1-3.58-1.17-7.14-2.91-16.1.08-21.79,4.48-6.55,5-9.19,11.51-9.86,19.63l-1.29,15.7c-.22,2.62-.5,5.24-.65,7.86q-.46,4.92.38-2-1.78,6.26,3.9-6.63l11-6.43,15.15,1.86,9,9,1.71,4.24V595.1l.35-.94H847.45c11.75,29.86,26.69,58,46.08,83.6,6.25,8.26,14,13.4,24.91,11.93a25.13,25.13,0,0,0,20.78-17.9c10.58-35.35-11.35-73.62-45.89-84.65-11.94-3.81-28.53,4.5-30.75,17.46A114.9,114.9,0,0,1,858.25,622c-.38,1.13-.81,2.25-1.21,3.38-1.92,5.56,1.6-3.24.15-.15s-2.81,5.94-4.4,8.85l45.7,6c-.41-2.51-1-5.11-1.18-7.65.43,6.64,0,.12-.11-1q-.8-6.72-1.32-13.47c-.71-9-1-18-1-27l-49.1,6.65c1.55,6.77,2.78,13.57,3.87,20.42.91,5.77-.47-4.49.09.85.2,1.89.41,3.76.59,5.64.32,3.46.57,6.91.74,10.37a254.12,254.12,0,0,1-1.43,42.46l25-25a16,16,0,0,0-2.85,0c.84-.2,5.84,1.15,2.49.16-4.58-1.37,3.71,2.21,1.38.75a19.57,19.57,0,0,0-2.48-1.39c-2.49-1.08,3.55,3.28,1.6,1.35-.69-.68-1.44-1.28-2.12-2-1.71-1.74-1.67-3.49.62,1.16-.42-.84-1.12-1.62-1.61-2.43a14.22,14.22,0,0,0-1.4-2.55c.92.9,1.81,5.3.75,1.63-.33-1.14-.71-2.27-1-3.43-.09-.36-1.13-6.06-.5-1.94.56,3.69.07-.36,0-1.13,0-1.2-.07-2.39-.06-3.59,0-2,1.19-6.41.51-8.13.42,1.06-.79,4.88-.14,1.25.21-1.18.41-2.37.63-3.55.44-2.32.94-4.63,1.48-6.93q1.73-7.32,4.1-14.46c.83-2.52,1.72-5,2.67-7.5.36-.92,1.25-2.32,1.31-3.29-.07,1.32-1.85,4.16-.44,1.08,2.21-4.83,4.56-9.57,7.15-14.22H843.54a300.85,300.85,0,0,0,41.56,59.32c12.33,13.84,37.69,6.76,41.78-11,5.5-23.93-.87-46.73-8.91-69.2-3.37-9.42-6.83-18.88-8.77-28.72-.21-1.1-.38-2.2-.57-3.3-.56-3.08.55,6.35.32,2.06-.15-2.61-.32-5.18-.21-7.8,0-1.08.54-5.11-.11-.54s-.06.54.16-.51c.47-2.27,3.51-10.45.31-2.88L880.87,532c5.1,2.13,10.17,4.4,15.33,6.39-3.22-1.43-4-1.75-2.44-1q2.73,1.47-2.36-2.76a8.53,8.53,0,0,1-3.63-4.55c-.8-2-.89-2-.27.07.48,2.91,1.42,5.84,2.12,8.7l8.68,35.76q8.69,35.76,17.38,71.52L952.4,617.9c-10.92-5.4-21.86-8.57-34.1-9-12-.44-25.45,1.89-34.45,10.48-10.16,9.71-10.38,22.5-9.94,35.5.3,8.93.53,17.86.22,26.79-.15,4.46-.55,8.87-.9,13.3q-.51,4.27.18-1-.27,1.89-.6,3.75c-.33,1.88-.7,3.74-1.12,5.6a100.66,100.66,0,0,1-3.29,11.55c-.25.71-.51,1.41-.78,2.11q-1.47,3.71.82-1.81c-1.12,1.45-1.74,3.78-2.6,5.42-1.62,3.1-3.54,6-5.41,8.95-2.6,4.1,3.79-4.44-.14.23q-1.66,2-3.46,3.83c-1.38,1.4-2.85,2.67-4.29,4-3.74,3.48,4.76-3.05.43-.34a76.08,76.08,0,0,1-10.29,5.64l34.2,34.21c15.7-25.2,24.24-53.9,26.07-83.44.64-10.46-8.19-21.8-18.36-24.11-10.34-2.36-23.16,1.37-28.23,11.49Q844.42,704.89,831,727.93q-6.72,11.52-13.81,22.8-3.29,5.25-6.66,10.44c-.43.65-.88,1.3-1.29,2-2.09,3.39,1-1.35,1.4-1.63a8.33,8.33,0,0,0-1.42,1.54q-1.41,1.35.94-.63A9.56,9.56,0,0,1,815,760c3.11-.77,5.12-.05,8.27.83l4.39,1.24,9.16,15.82a12.59,12.59,0,0,1-1.8,7.19,19.3,19.3,0,0,0,1-2.09q3-6,5.61-12.14a286.92,286.92,0,0,0,10.25-26.88,263.47,263.47,0,0,0,10.49-53.75,221.58,221.58,0,0,0-1.34-53.91,68.58,68.58,0,0,0-30-47.79c-14.7-9.89-34-13.46-51.47-12.31A222.79,222.79,0,0,0,725.39,587a85.53,85.53,0,0,0-29.49,16.16,62.74,62.74,0,0,0-4.72,4.65c-.58.62-1.21,1.22-1.77,1.86-3.33,3.77,2.76-1.34.48-.18s2.32-.82,2.33-.78c.09.24-6.49,1.32-1.42.6s-6.81-.9-1.43,0c4.21.68-1.31-.39-2.37-.69a13.9,13.9,0,0,0-2.71-.87c.72-.16,5.16,2.56,2,.85-1.67-.92-3.31-1.85-5-2.83-.7-.42-2.69-2.05.21.28,3.29,2.64-.07-.14-.76-.78-1.34-1.25-2.51-3.07-3.93-4.15,0,0,3,4.41,1.74,2.22-.48-.81-1.06-1.58-1.55-2.39s-3.4-6.74-1.61-2.74c1.55,3.47.48,1.14.25.32-.38-1.38-.78-2.73-1.1-4.13-2.75-12.14-15.71-19.49-27.43-17.91C635.67,578,624.65,588.55,625.52,601c1.68,23.85,20.4,43.32,44.82,44,15.09.45,29.78-7.57,33.9-22.85,3.54-13.08-2.06-27-11.47-36.15-1.31-1.28-2.64-2.59-4-3.81-3.51-3.13,2.72,4.6.73.87,3.43,6.44,3.28,14.21-2,19.39q-5.19,3.54-1.84,1.59,3.61-1.64-2,.83c1.57,0,3.89-1.33,5.45-1.74,1.39-.36,2.79-.61,4.19-.91,4.34-1-6.54.44.44.08,1.9-.09,3.81-.09,5.71,0,1.39.07,2.89.41,4.28.36-4.28-.62-5.08-.69-2.41-.24.94.18,1.88.38,2.8.6,1.86.45,3.7,1,5.5,1.59.91.31,1.8.64,2.69,1q-5.64-2.45-2-.8a92.81,92.81,0,0,1,8.61,5.06c2.1,1.55,1.54,1.11-1.67-1.29.73.6,1.45,1.23,2.15,1.88,1.4,1.3,2.71,2.68,4,4.1L741,571.91c-7.76.56-15.53.83-23.31.71-1.95,0-3.89-.08-5.84-.16-1.14,0-2.29-.09-3.43-.17l3.65.5q-8.41-2.49,9,7.77l1.44,3.39c1.83,7,.25,2.5.22-.1,0-1.65,0-3.29.15-4.93q.07-1.23.21-2.46-.79,5.47-.3,2.58a98.4,98.4,0,0,1,2.47-9.55c.26-.78.55-1.55.85-2.32q-2.09,4.77-.91,2.19c.77-1.45,1.44-3,2.25-4.39s1.68-2.83,2.6-4.19c3.54-5.27-2.64,3,.58-.82l-42.68-17.68c.34,12.86,1.69,26.52,9.49,37.26,11.74,16.18,32.38,24,51,14.13,24.36-12.95,22.79-43.5,24.44-67.12q1.27-18.24,2.54-36.48c.19-2.69.46-5.38.64-8.07.26-3.65-1.57,6.09,0,.59.31-1.08.57-2.27.82-3.36,1.08-4.72-.07,1.15-.67,1.12-.86,0,4.24-4.8.26-1.05-3.42,3.22.83-.09.83-.65l-2.87,2.16a17.55,17.55,0,0,1,2.38-1.38c-1.06,1.55-6.29,2-7.39,2,4,0-2-.46-2.31-.53,4.93,1-4.08-2.07-1.21-.48s-4.57-4.23-.91-.58c2.62,2.6-1.47-.77-1-1.52,0,0,1.85,3,1.69,2.67s1.58,2.86,1.5,2.91q-2.12-5.24-.69-1.44L767,484a66.58,66.58,0,0,1,1.94,8c.2,1.06.27,2.24.55,3.27-1.5-5.59-.43-3.5-.25-1.7.6,6.22,1.21,12.44,1.68,18.68q1.57,20.63,2,41.32.18,9.84.1,19.7c0,3.28,0,6.56-.15,9.84-.05,1.38-1.26,5,0,1.35a12.24,12.24,0,0,1,4.54-9.17q10.94-9.06,23-3.24l12.38,21.59A411.2,411.2,0,0,0,806.11,493c-1.78-9.59-11.79-16.7-20.78-17.91-10.44-1.4-19,3.53-24.91,11.94a219.56,219.56,0,0,0-29,58.76,190.85,190.85,0,0,0-6.93,28.78c-1.51,9.56-2.46,18.62,2.59,27.49a32.48,32.48,0,0,0,21.48,15.55c22.1,4.49,46.54-2,65.52-13.51A118.17,118.17,0,0,0,858,556.4c11.38-22.77,16.52-47.61,17.28-73,.37-12.44-9.8-23-21.68-24.55-12.67-1.7-23.4,6-27.43,17.91q-12.95,38.3-23.43,77.35a25.15,25.15,0,0,0,9,26.28c8.53,6.59,18.28,6.18,27.76,2,15.36-6.84,28.38-18.65,39.45-31.1,4.83-5.42,9.46-11,14-16.68,6-7.47,12.33-15.13,16.5-23.86,7.87-16.5,11.63-34.93,15.3-52.75,3.92-19.05,6.68-38.77,4.75-58.23-.8-8.14-3.24-14.52-9.85-19.63-6.84-5.28-13.52-5.62-21.79-4.48-17.76,2.45-34.16,7.81-48.05,19.52-7.6,6.42-12.69,15-16.3,24.09-3.24,8.24-2.92,16.76-2.44,25.38.05.85.05,1.7.09,2.54,0,1.05-.65,3.27.11,0,.33-1.43.46-3.65,1.62-4.78a8.8,8.8,0,0,0-1.12,2c-.88,2.17,1.36-1.76,1.65-2a12.29,12.29,0,0,0-1.54,1.75c-1.32,1.45-2.71,2.82-4.08,4.22L809.64,466.8l-35.55,36.09L733,544.64,774.75,569c.86-2.2,1.72-4.4,2.61-6.6.26-.64,3.07-7.26,1.45-3.56s1.27-2.89,1.55-3.52c.84-1.9,1.69-3.78,2.56-5.66q5.37-11.68,11.41-23a439,439,0,0,1,25.76-42.41C839.5,456,866,430,865.78,393.27c-.12-19-21.14-31.09-37.62-21.58-7.24,4.17-14.61,8.08-22.16,11.66-2.15,1-4.32,2-6.5,3l-3.27,1.43,2.68-1.12c-4,1.9-8.32,3.37-12.49,4.9A309.26,309.26,0,0,1,737.31,405l24.32,41.78a127.36,127.36,0,0,1,18.46-19c.85-.71,1.72-1.41,2.59-2.09q-4.32,3.3-1.09.9c1.83-1.25,3.62-2.55,5.48-3.75a131.48,131.48,0,0,1,11.53-6.6L764.39,382l-34.31,49.24c-7.5,10.76-2.32,28.24,9,34.2,12.78,6.75,26.2,2.52,34.21-9Z" transform="translate(-2.03 -10.25)"/><path class="cls-2" d="M941.52,402.57c1.54-3.07,3-6.18,4.53-9.27.76-1.54,1.53-3.09,2.34-4.61.48-.88,2.45-3.48,2.56-4.45-.2,1.88-7.49,6.05-4.09,4.47,1.19-.55,2.35-1.22,3.52-1.81a60.15,60.15,0,0,0,10.78-7.43c10.21-8.26,9.23-26.88,0-35.36-10.85-10-24.46-8.81-35.36,0,5.75-4.64,1.74-1.6-.06-.68-1.18.6-2.39,1.13-3.54,1.79a40.65,40.65,0,0,0-13.61,12.63c-4.16,6-7,13-10.25,19.48-5.87,11.67-3.47,27.63,9,34.21,11.36,6,27.93,3.5,34.21-9Z" transform="translate(-2.03 -10.25)"/><path class="cls-2" d="M176.36,196.83q-.54-3.08.07.95a17.07,17.07,0,0,1-2.61,13l-9,9,.49-.23-12.62,3.41a18.24,18.24,0,0,1-8.61-2.14,28.15,28.15,0,0,1,2.39,1.5c1.18.78,2.3,1.66,3.51,2.39a38.11,38.11,0,0,0,18.62,5.67,37.13,37.13,0,0,0,21.9-6.8c5.25-3.69,9.5-8,14.09-12.41.85-.81,1.78-1.55,2.62-2.36,1.27-1.23-6.12,3.65-1.62,1.48,3.56-1.71-6.46,2.32-2.78,1.25q-7.92.72-4.14.67c-5.16-.93-6.5-1.06-4-.36,12,3.58,24.79-3.35,29.49-14.48,5-11.81.27-24.27-10.23-31.22-9.66-6.4-24.6-4.48-32.5,4.13-8.31,9.05-10.4,22.27-3.89,33,8.2,13.51,26.18,16.18,40.59,17.4a86.15,86.15,0,0,0,13.63-.07c2.33-.16,2.59,1.24-2.58-.47l-6.46-6.39q-8.18-11.28-6.09-5s-.29-5.66-.42-3c0,.72-.37,3,0,3.69-1.11-1.94,1.12-5.54.28-2.34-.24.91-.55,1.88-.75,2.81-.81,3.81.38-1.36,1-1.88a15,15,0,0,0-1.31,2.67c-1,1.79-2.08,3.46-3.18,5.16s-2.69,2.3,1.11-1.34c-.74.71-1.34,1.64-2,2.41-11.31,13.06-25.5,23.31-37,36.26-13.26,14.92-24.74,32-29.89,51.46-5.69,21.6-2.26,43.11.87,64.78.5,3.5-.59-4.91-.19-1.4.13,1.17.28,2.33.42,3.5.22,2,.43,4.06.58,6.1a102.91,102.91,0,0,1,.17,14.69c-.08,1.15.33,4.57,0,1-.3-3.46,0-.36-.22.94-.39,2-.86,3.92-1.44,5.84-.36,1.22-1.18,5.68-2.23,6.31,1-.63,2.07-4.49.53-1.36-.62,1.26-1.2,2.54-1.81,3.79-4.64,9.49-9.62,18.8-13.13,28.79-3.69,10.53-4.16,21.83-5,32.86-.09,1.21-.25,2.42-.29,3.62-.14,3.55.92-4.72.22-1.26-.43,2.07-.77,4.13-1.36,6.16-1.36,4.64-3.77,8.91-5,13.6-3.54,14,0,27.1,6.93,39.35,2.53,4.47,5.16,8.85,7.36,13.49.5,1.05,1,2.12,1.46,3.18,1.31,2.82-1.78-4.73-.2-.32.88,2.47,1.78,4.93,2.56,7.44a122.67,122.67,0,0,1,3.67,15.28c.16.94.88,4.76.21,1-.72-4,.08,1,.16,1.88.24,2.61.38,5.23.46,7.85.22,6.83.47,13.75,2.05,20.44,1.64,7,5.07,12.82,9.38,18.4,3,3.84,6.13,7.62,9.46,11.17,2.07,2.21-2.92-4.64-1.59-2,.17.34,1.72,2.17,1.52,2.57s-2.26-6.56-1.41-2.8L158,624.9q1.34-7.1.22-3.22l17.46-17.46a16.32,16.32,0,0,0-2.64.84l4-.63q6.28,1.14,3.33.48c-5.46-1.94,4.9,2.63-.33-.34-2.65-1.5,3.6,3.57,1.7,1.15-2.86-3.62.66.15.56,1.14a17.26,17.26,0,0,0-1.55-2.49c-2.22-3.58,1.09,4,.39.91-2.19-9.74-3.12-20.27-6.47-29.7-3.84-10.84-9.77-20.12-15.51-30-1.11-1.91-2.19-3.84-3.18-5.82l-.38-.74q-1.71-3.69.51,1.44c-.44-.37-1.12-3.11-1.22-3.41a70.74,70.74,0,0,1-1.86-7c-.26-1.18-.49-2.37-.7-3.57s-1.62-7.39-.18-.55c-2.15-10.21-2.28-21.38-2.88-31.78q-1-16.95-.8-33.93.18-16,1.38-32,.6-8,1.46-16,.41-3.75.86-7.5c.19-1.54.67-6.07,0,.11.18-1.56.43-3.12.66-4.67A499.65,499.65,0,0,1,169,327.6c3.62-12-3.36-24.8-14.47-29.49a25.1,25.1,0,0,0-31.22,10.23c-17.59,28.48-30.85,59.24-44,90l46.58,12.62a343.21,343.21,0,0,1,.62-46.25q.48-5.76,1.15-11.51c.21-1.81,0-8.23.13-1.3a33.92,33.92,0,0,1,.78-5.29q1.8-11.43,4.36-22.72a342,342,0,0,1,13.26-44.32c1.25-3.33,2.57-6.64,3.91-9.94,2.1-5.18-1.86,4.11.26-.58,1-2.17,1.92-4.34,2.91-6.5q4.86-10.5,10.43-20.66l-45.69-6c1.41,6.17,2.65,12.38,3.66,18.63.2,1.25.39,2.5.58,3.75.95,6.19-.38-3.69,0-.06.32,3.15.72,6.29,1,9.45a281.87,281.87,0,0,1,.75,37c-.55,12.42,9.93,23,21.67,24.55,5.33.72,11.29,0,15.94-3,5.86-3.78,8.82-8.58,11.49-14.94l32.68-77.68c2.33-5.53.36-14.35-2.52-19.26-3-5.19-9-10.13-14.94-11.49-6.4-1.46-13.58-1.14-19.26,2.52-5.86,3.78-8.82,8.58-11.49,14.94L124.88,298,174,304.63a307.71,307.71,0,0,0-7.76-82c-4.78-20.85-35.58-24.5-45.69-6-32.26,59.1-48.24,127-44.64,194.3.57,10.63,7.32,21.59,18.36,24.11a29.81,29.81,0,0,0,13.29,0c5.24-1.2,12.75-6.37,14.94-11.49,13.14-30.71,26.4-61.47,44-90l-45.69-19.26a518.68,518.68,0,0,0-20.56,194c1.61,18.5,3.41,36.67,11.1,53.75,2.85,6.32,6.65,12.12,10.21,18.05,1.85,3.08,3.41,6.3,5.17,9.43,1.3,2.32-.87-2.08-.88-2.2a11.68,11.68,0,0,0,.85,2.33,55.29,55.29,0,0,1,1.59,5.84c1.57,7.1,2,14.42,4.09,21.42,2.7,9.2,7.42,18.06,14.5,24.67,8.14,7.61,18.82,12.83,30.13,12.84a37.49,37.49,0,0,0,17.93-4.52c8.62-5,12.7-14.82,13-24.45.35-10.78-4.78-19.59-11.22-27.69-1.8-2.26-3.75-4.38-5.67-6.54-.67-.77-3.69-4.51-1.08-1.08,3.22,4.21-.88-1.76-.94-1.77.48.08,1.28,4.64.93,2a11.45,11.45,0,0,0-.63-2.47c.12.09.39,5.18.3,2.38,0-.87-.14-1.74-.18-2.6-.2-3.78-.18-7.56-.44-11.33a164.58,164.58,0,0,0-3.95-26.49c-3.86-16.07-11.29-30.36-19.11-44.75-.45-.83-2.95-5.69-1.19-2.19,2.16,4.33-.8-5,.06.15.61,3.58.22,1.07.26.13,0,.32-1.27,4.83-.22,2.53.8-1.73,1.21-3.77,1.93-5.56a92.83,92.83,0,0,0,6-27.13c.32-3.63.47-7.28.76-10.91.07-.91.2-1.82.24-2.73.11-2.82-.23,2-.35,2.14.87-1.28.84-4.44,1.25-6s.92-3.2,1.48-4.78c.3-.87,2.28-6,.88-2.44s.77-1.5,1.18-2.35c.85-1.77,1.74-3.52,2.62-5.27,8.21-16.26,14.62-31.8,15.49-50.21a129,129,0,0,0-1.16-21.7c-.63-5.15-1.35-10.28-2.08-15.41q-.36-2.62-.74-5.26c-.1-.69-.56-3.75,0-.18.6,4.05-.11-1.08-.21-1.94a117.29,117.29,0,0,1-.77-21.84,10.53,10.53,0,0,0,.23-2.6c0,.06-.89,5-.3,2.41.34-1.54.58-3.1.94-4.63.77-3.18,2.54-6.46,3-9.65,0-.08-2.21,4.83-1,2.39.34-.7.65-1.41,1-2.11q1-2.12,2.14-4.16c1.63-3,3.43-5.88,5.34-8.69,1-1.48,2.34-2.93,3.23-4.5,0-.05-3.22,4-1.46,1.92.51-.61,1-1.25,1.51-1.86,2.21-2.68,4.53-5.28,6.91-7.82,9.11-9.72,19.51-18,28.87-27.46,12.91-13,22.48-28.1,24.3-46.63,1.07-10.82-2-22.91-9.76-30.76-9-9.1-20.09-9.2-31.86-9.14-1.81,0-3.62-.06-5.42-.19a10.13,10.13,0,0,0-2.71-.24c.22-.08,4.88.92,2.17.23-1.75-.44-3.55-.7-5.3-1.15-.87-.23-1.74-.52-2.62-.73-6.68-1.63,3.06-4.22,9.61,8.18l3.42,12.61,0-.91-3.41,12.62.48-.8-9,9-4.44,1.86-19.26-2.52.67.45L208,163.57c-13.16-3.94-25.23,1-35.34,9.21a86.41,86.41,0,0,0-6.34,5.91c-1.1,1.11-2.21,2.23-3.37,3.28-.5.46-1.06.88-1.53,1.35-1.74,1.76,5.58-4,2.31-1.85-.19.12-1.43,1-1.62.93s6.46-2.51,3.45-1.53c-3.46,1.11,6.39-.5,3.54-.54-1.19-.05-.61,0,1.73.21a7.11,7.11,0,0,1,3.91.94c3.43,1,1,.31-.06-.39s-1.94-1.35-2.92-2a44.06,44.06,0,0,0-9.62-4.66,26.77,26.77,0,0,0-31.47,11.09c-4.76,7.68-4.09,16.13-2.5,24.6,2.41,12.89,18.65,21.38,30.75,17.47,13.77-4.46,20-17,17.46-30.76Z" transform="translate(-2.03 -10.25)"/><path class="cls-1" d="M103,597.42c7.84,0,15.36-6.9,15-15s-6.59-15-15-15c-7.85,0-15.37,6.9-15,15s6.59,15,15,15Z" transform="translate(-2.03 -10.25)"/><path class="cls-1" d="M117.1,611.24c1.48.9,1.56.84.22-.17,1,1.11,1.21,1.24.59.41-.75-1.5,1.16,1.95,1.38,2.36.33.61.63,1.22.91,1.85-.61-1.46-.6-1.38,0,.26.44,1.3.91,2.6,1.36,3.88,2.38,6.69,5.24,13.46,10.31,18.61a28.36,28.36,0,0,0,11.34,7.18c2.43.79,4.58.85,7.14,1.37l-1.39-.18q6.1,1.73-5.24-6c-.23,7.68,6.16,15.48,12.18,19.35a73.64,73.64,0,0,0,20.78,8.58,56.53,56.53,0,0,0,12.88,1.7c.25,0,5.46-.24,5.5,0a2.19,2.19,0,0,1-1.41-.48c-1.68-1-2.33-2.64-1.95-5q-3.37-6.13,3.35-10.19c1.83-.61,2.21-.75,1.11-.42s-.71.26,1.17-.07c-1.74,0-1.56,0,.53.23-2.5-.69,1.5,1-1.81-.65-1.41-.69-2.81-1.38-4.25-2-4.39-2-8.58-3.39-13.49-3.53-1.34,0-2.68.1-4,.15a26.65,26.65,0,0,1-2.68.07c4.23,1.79,5.3,2,3.21.54l5.38,5.39q.8,6.91.78,2.85c.11-1.08.21-2.16.31-3.24.2-2.6.3-5.21.25-7.81a100.69,100.69,0,0,0-1.78-16.61,75.82,75.82,0,0,0-10.5-26.75,78.72,78.72,0,0,0-43-32.57c-7.49-2.34-16.7,2.77-18.45,10.48a15.31,15.31,0,0,0,10.47,18.45c1.22.38,2.42.79,3.62,1.22,2.39.85-1.66-.82.64.24a60.63,60.63,0,0,1,6.07,3.21c4.7,2.83,5.07,3.17,8.94,7.06a33.19,33.19,0,0,1,7,9,42.94,42.94,0,0,1,5.09,12.4,47.28,47.28,0,0,1,1.87,12.89c.17,6.12-1.41,12.57.11,18.59a19.83,19.83,0,0,0,14.15,13.88,28.33,28.33,0,0,0,8.51.71c.91,0,1.82-.08,2.72-.15,2.29-.15-.65-.78,1.8.39-1.77-.85,2.72,1.38,3.52,1.75a44.39,44.39,0,0,0,8.12,3.1c6.09,1.45,13.32.81,18.82-2.35,12.56-7.22,14.32-23.34,4.24-33.55-4.88-4.94-11.71-6.88-18.45-7.21-6-.3-8.81.11-14.7-2-1.43-.5-2.83-1-4.23-1.61-.19-.08-2.91-1.3-1-.4-.81-.38-1.6-.81-2.42-1.17-2.71-1.18-.46-.53-.21.12-.07-.17,1.38,2.27,1.18,2.37,0,0-.58-2.8-.65-3.12a24.08,24.08,0,0,0-4.08-9.1,19.85,19.85,0,0,0-10.21-7.19c-.82-.25-1.64-.43-2.48-.6-1.54-.23-3.08-.44-4.63-.63,1.61.24,1.86.23.77,0-1.75-.41.63.28,1.1.62.81.69.67.52-.44-.51.78,1.16.88,1.29.28.4s-1-1.55-1.42-2.35c-.33-.61-.65-1.23-.93-1.87.49,1.24.55,1.36.17.38-4.19-11.09-7.8-22.45-19-28.46-7.14-3.83-16.33-1.78-20.52,5.39-4,6.81-1.78,16.67,5.38,20.52Z" transform="translate(-2.03 -10.25)"/><path class="cls-1" d="M217.65,561.74A45.34,45.34,0,0,1,212,558.9a29.53,29.53,0,0,1-2.64-1.76c1.44,1.11-1-1-1.21-1.22-2.89-2.79-4.12-4.67-6.39-8.84a113.91,113.91,0,0,1-10.44-25.25c-2.42-8.83-2.4-17.58-2.49-27.48,0-4.89,0-8.05,1.16-11.84-.6,2,0,.22.46-.81.95-1.93-1.35,1.27.08-.31.18-.2,2-2.24,1-1.08-.86.95,2.37-.61-.33.27,7.71-2.5,12.7-10.4,10.48-18.46-2.08-7.56-10.71-13-18.45-10.47-14.61,4.73-22.06,17.42-23.9,32-1.65,13.18-.61,27.83,1.85,40.83,2.35,12.45,8.08,25,13.89,36.23,6,11.59,15.3,21.69,27.45,26.89,7.44,3.19,16.08,2.22,20.52-5.38,3.69-6.31,2.11-17.31-5.38-20.52Z" transform="translate(-2.03 -10.25)"/><path class="cls-1" d="M196.55,580.91c7.85,0,15.36-6.9,15-15s-6.59-15-15-15c-7.85,0-15.36,6.9-15,15s6.59,15,15,15Z" transform="translate(-2.03 -10.25)"/><path class="cls-1" d="M184.11,558.71a20.71,20.71,0,0,0-2,17.46c2.44,6.87,7.4,12.12,14.51,14.22,7.52,2.21,16.67-2.68,18.45-10.48,1.83-8-2.42-16.08-10.48-18.45a6.38,6.38,0,0,1-.87-.3l3.59,1.51a8.51,8.51,0,0,1-1.16-.7l3,2.34a7.91,7.91,0,0,1-1-1l2.34,3a8.64,8.64,0,0,1-.95-1.57l1.51,3.58a9.87,9.87,0,0,1-.52-1.76l.54,4a8.62,8.62,0,0,1,0-1.83l-.53,4a8.75,8.75,0,0,1,.32-1.32l-1.51,3.59a7.82,7.82,0,0,1,.65-1.21c4.33-6.56,1.52-16.88-5.38-20.52-7.51-4-15.9-1.63-20.52,5.38Z" transform="translate(-2.03 -10.25)"/><path class="cls-1" d="M121.3,213.68l.16,20c0,2.68.73,6.18.05,8.75-.23.87.59,1.47-.66,0a15.93,15.93,0,0,1-2-3.87c-2.63-5.86-11.25-.78-8.63,5.05,1.84,4.09,4.45,8.12,9,9.39a9.35,9.35,0,0,0,10.5-3.78c2.76-4.4,1.73-10.61,1.69-15.55l-.16-20c-.05-6.43-10.05-6.45-10,0Z" transform="translate(-2.03 -10.25)"/><path class="cls-1" d="M321.83,123c1.8-7,4.73-13.72,5.66-20.93s-.86-14.34-3.89-21A27.83,27.83,0,0,0,315,69.79c-2.91-2.22-6.45-5.25-10.13-6-6.84-1.38-7.24,5.69-7.54,10.57-.48,8-.29,16.19-.18,24.22.07,6.14,1.6,12.48,7.13,15.94,4.87,3,11.57,2.29,14.88-2.68,3.15-4.72,2.54-11.27-.23-16-1.88-3.23-4.76-5.69-7.15-8.52-3.26-3.85-3.76-7.81-2.75-12.64,1.32-6.28-8.32-9-9.64-2.66-1.21,5.78-1.37,11.63,1.44,17,2.51,4.82,8.45,8.14,10.1,13.27.39,1.21.87,3.69-.57,4-2.72.63-3.15-5.56-3.21-6.94-.27-6.76-.12-13.66,0-20.43,0-1.52.07-3,.16-4.56.05-.9.12-1.81.21-2.7q.72-3.94-4.87,1.89c.55.76,2.63,1.56,3.45,2.1,3,2,5.19,3.71,7,6.85,3.08,5.26,5.26,11.81,4.57,18-.77,6.82-3.81,13.31-5.51,19.92-1.61,6.24,8,8.9,9.64,2.66Z" transform="translate(-2.03 -10.25)"/><path class="cls-1" d="M303.87,81.08c6.44,0,6.45-10,0-10s-6.44,10,0,10Z" transform="translate(-2.03 -10.25)"/><path class="cls-1" d="M307.93,66.54c1.77,6.55,8.46,19.8,17.2,14.11,3.45-2.26,3.71-7.43,3.69-11.21a16.19,16.19,0,0,0-5.1-12.09C319,53,311.94,60,316.65,64.42c3,2.8,2.25,6.58,1.53,10.25l1.28-2.21c.47-.22.54-.31.21-.28l3.85.5c-3.76-1.69-4.93-5-5.95-8.8-1.68-6.2-11.33-3.57-9.64,2.66Z" transform="translate(-2.03 -10.25)"/><path class="cls-1" d="M306,63.86c-2.73,6.64.53,16.12,8.82,15.72s8.66-9.26,8-15.57c-.27-2.69-2.1-5-5-5-2.49,0-5.28,2.3-5,5a47.61,47.61,0,0,1,.36,4.77c0,.45,0,.89-.05,1.33.08-1.34-.1.34-.1.33-.16.46-.16.51,0,.14s.13-.34-.08.06a3,3,0,0,1,1.33-1l.53,0c-.64,0-.67,0-.08.08l-.41-.11a1.59,1.59,0,0,1,.85.51c-.81-.6.75.41-.13-.2.45.31.16.54,0-.32.18.87,0,.14,0-.34,0-.14,0-1.33,0-.62s.13-.61.17-.77a11.52,11.52,0,0,1,.44-1.29c1-2.5-1.11-5.5-3.49-6.15-2.87-.79-5.11,1-6.15,3.49Z" transform="translate(-2.03 -10.25)"/><path class="cls-1" d="M304.46,116.54c6.84,7.2,16,5.6,24.87,4.28,1.68-.25,3-2,3.49-3.49,3.08-10.44,4.05-22,.27-32.4C329.6,75.31,322,65.54,311.63,63.19c-6.27-1.42-8.95,8.22-2.66,9.64,7.92,1.79,13.35,10.18,15.39,17.61,2.2,8,1.13,16.38-1.18,24.23l3.49-3.49c-5.07.76-11.17,2.47-15.13-1.72-4.44-4.68-11.5,2.4-7.08,7.08Z" transform="translate(-2.03 -10.25)"/><path class="cls-1" d="M333.33,149.09c-3.42-14.6-19-21.3-21.52-36.33-2.58-15.18.12-32.66-14.87-42.23v8.63c5.58-3.34,8.25,6.21,6.59,10.07-1.39,3.23-3.55,2.38-6.5,2a21.85,21.85,0,0,0-8.6.22c-11,2.81-15.35,14.92-10.42,24.6,2.74,5.4,10,1.36,9.13-3.85a8.33,8.33,0,0,0-2.54-5c-2.71-2.09-5.81-1.85-7.86,1-1.82,2.54-.07,5.55,1.27,7.79,2.43,4.09,9.59,2.57,9.31-2.52-.26-4.83-.32-9.65-.32-14.48l-3.67,4.82c7.81-1.73,15.82-.79,23.67.18,6.37.79,6.31-9.22,0-10-8.85-1.09-17.54-1.77-26.33.18A5.05,5.05,0,0,0,277,99c0,4.83.06,9.65.32,14.48l9.32-2.53a8.24,8.24,0,0,1-.84-1.43l-.5,3.85.08-.11-7.86,1c-.32-.25-.26-.92,0,.53l9.14-3.85a6.76,6.76,0,0,1,1.41-8.37c3.05-2.71,6.93-1.49,10.53-1.09a13.14,13.14,0,0,0,14.38-9c4.58-12.49-7.12-30.33-21.07-22a5.05,5.05,0,0,0,0,8.63c12.76,8.15,7.5,28.58,11.41,41.05,1.92,6.14,5.52,11.08,9.79,15.79s9.07,9.21,10.6,15.75c1.47,6.26,11.12,3.61,9.64-2.66Z" transform="translate(-2.03 -10.25)"/><path class="cls-1" d="M619.75,609c3.76,4.32,4.59,10.37,8.53,14.67a24.56,24.56,0,0,0,12.62,7.06,50,50,0,0,0,15,.86c4.45-.34,10.58-.25,13.88-3.73s2.14-8.85-1.87-11.4c-4.67-3-11.22-2.26-16.46-1.87-6.66.51-11.51.56-16.31-4.67-5.07-5.54-9.87-11.36-14.8-17l-6.06,7.85a72,72,0,0,0,23.87,10.57A74.1,74.1,0,0,0,651,613.15c2,.11,11.33-1,11,1.72l7.53-4.31c-8.4-3.73-17.31-5.49-26.49-4.28-7,.91-12.94,5.62-10.88,13.33,2.13,8,10.5,9.79,17.66,10.42a91.43,91.43,0,0,0,28.74-2.29c3.32-.77,4.38-4.59,3-7.34-3.26-6.47-10.56-8.63-17.37-8.61-4.16,0-9,1.24-12.94-.41s-6.33-6.43-9.22-9.56c-5.92-6.39-13.78-10.64-19.22-17.54a47.21,47.21,0,0,1-9.7-25.21c-.53-6.37-10.54-6.43-10,0a59.15,59.15,0,0,0,7.85,25.49c4.92,8.29,11.94,13.75,19.18,19.85,6.51,5.47,10.65,14.56,19.31,17,4.65,1.28,9.39.52,14.11.43,3.5-.06,7.62.19,9.36,3.66l3-7.35c-9.33,2.18-21.09,3.91-30.52,1.26-1.53-.43-4.44-1.6-3-2.92,1-1,5.42-.57,6.81-.57a38.37,38.37,0,0,1,15.32,3.32c3.72,1.65,7-.36,7.52-4.32,1.59-12.22-13.25-11.31-21-11.72a62.39,62.39,0,0,1-31.66-11c-5-3.36-9.59,3.78-6.06,7.85l10.58,12.19c3.27,3.77,6.43,8,10.95,10.39a24.49,24.49,0,0,0,12,2.36c2.34,0,4.68-.32,7-.48s4.94.38,7.16.09l1.48.36.07-4.09a14.87,14.87,0,0,0-2.47.4c-2.07.28-4.16.45-6.25.54a35.58,35.58,0,0,1-11.5-1c-9.3-2.68-9.82-12.33-15.48-18.83-4.23-4.86-11.28,2.23-7.07,7.07Z" transform="translate(-2.03 -10.25)"/><path d="M171.28,139C67,408.9,123.72,677.41,268.79,740.37c114.2,49.56,258.82-36.18,299.14-60C733.62,582.63,790.13,419.48,805,370.87c12.43,35,42.91,135.16,8.72,256.47C777.87,754.5,693.29,825.66,664.4,848c55.34-1.74,97-16,125.33-29.34C972.94,732,995.12,526.74,996.86,505.13c3,38.88,10.56,147.92-89.42,287.4C808.67,930.31,671,971.55,632.79,981.62A509.73,509.73,0,0,1,460.6,996.84,500,500,0,0,1,281,946C116.38,863.19,52.08,711.73,44.28,692.55-14.17,548.92,14.11,420,30,366.32,65.36,246.67,136.43,171.51,171.28,139Z" transform="translate(-2.03 -10.25)"/><g class="cls-3"><path d="M994.11,515.92a44.12,44.12,0,0,1-1.11-9.66V488.5a453.68,453.68,0,0,0-14-82.8,47.69,47.69,0,0,1-16.25-24.16c-.55-2.06-1.19-4.07-1.9-6.07-2.63-5.67-5.35-11.3-7.8-17.07-5.06-12-7.26-21.63-8.62-34.83a30.06,30.06,0,0,1,.81-10.29c-27-58.29-62.81-112.74-101-162.78A48.28,48.28,0,0,1,824.68,139c-1.78-1.74-3.61-3.4-5.49-5-5.56-2.7-11.18-5.29-16.75-8a171.93,171.93,0,0,1-31.14-19.47l-.62-.36c-19-11.07-36.64-24.25-56-34.66A41.51,41.51,0,0,1,699.43,57a51.17,51.17,0,0,1-4-6A495.89,495.89,0,0,0,498.09,10.25,501.1,501.1,0,0,0,428.91,15a47.7,47.7,0,0,1-22.72,6c-1.45,0-2.87-.08-4.27-.21a47.28,47.28,0,0,1-19.34,4.36c-.59,0-1.17,0-1.75-.05A47.59,47.59,0,0,1,359,30.77c-.83,0-1.66,0-2.48-.08Q342,35,327.85,40.13a43.56,43.56,0,0,1-4.09,4.76,48,48,0,0,1-32.83,13.55,43.62,43.62,0,0,1-5.87-.4C117.7,137.48,2,308.09,2,505.13,2,778.16,224.12,999,498.09,999S994.14,792.25,994.14,519.21C994.14,518.11,994.12,517,994.11,515.92Z" transform="translate(-2.03 -10.25)"/></g><path d="M1121.05,844.69" transform="translate(-2.03 -10.25)"/><path class="cls-2" d="M748.88,194.22c5.64,2.06,9.34,7.66,14.24,11,5.07,3.41,11.07,4.76,16.59,7.17,10.62,4.64,16.43,15.82,27.94,19.06,6.21,1.74,8.85-7.9,2.66-9.64-5.78-1.63-9.74-6.11-14-10a45.92,45.92,0,0,0-14-9.1c-5.83-2.36-11.73-3.89-16.57-8.12-4.52-3.94-8.38-7.84-14.13-10-6.06-2.21-8.67,7.45-2.66,9.65Z" transform="translate(-2.03 -10.25)"/><path class="cls-2" d="M805.84,231.56a19,19,0,0,0,10.06,5.24,8.14,8.14,0,0,1,3.88,1.19c2.27,1.53,4.39,3.39,6.55,5s5.58.31,6.84-1.79c1.53-2.57.33-5.2-1.8-6.84-3-2.3-6.14-5.64-9.83-6.79-3.23-1-6-.59-8.63-3.13-4.65-4.45-11.74,2.61-7.07,7.07Z" transform="translate(-2.03 -10.25)"/><path class="cls-2" d="M813,237c1.6,7.16-1,13.93-6.53,18.64l8.54,3.53,1.66-14.68c.4-3.52,1.62-7.89-.58-11.08-1.8-2.63-4.19-2.27-6.53-3.73s-3.55-4.73-5.13-6.74a14.2,14.2,0,0,0-7-5.19,18.81,18.81,0,0,0-4.49-.52c-3.09-.1-3.6-.29-5.93-2.41-6.09-5.54-12.86-7.83-21.06-6.47l4.86,1.28c-7.42-6.93-19.43-22.84-31.33-17.94-4.54,1.87-7,7.87-2.71,11.41s12.78,3.15,18,2.7c5.5-.47,6.94-8.06,1.33-9.82a26.87,26.87,0,0,0-23.76,3.7c-5.19,3.71-.2,12.39,5.05,8.63a17.32,17.32,0,0,1,16-2.68l1.33-9.83a42.47,42.47,0,0,1-6.86.13,23.91,23.91,0,0,1-3.77-.52q-2.82-1-.94.1l1.47,3.53c.27,2.33,0,1.16,1.67,2.46,1.17.92,2.56,1.56,3.73,2.52,1.8,1.46,3.44,3.13,5.13,4.7,2.83,2.64,6.9,8.2,10.76,9.27,2.07.57,4.39-.34,6.54,0a12.49,12.49,0,0,1,5.73,2.38c3.82,2.9,5.5,6.32,10.74,6.81,1.86.18,4.47-.4,6.15.44,1.22.62,2,2.16,2.77,3.24,1.79,2.63,3.54,5.41,6.26,7.19.83.54,3,2,4,1.75,1.21.4,1-.22-.74-1.88l-.08,1.09c-.44.86-.3,2.69-.41,3.67L805,259.15c-.53,4.72,5.62,6,8.54,3.54a28.76,28.76,0,0,0,9.09-28.37c-1.41-6.28-11-3.62-9.64,2.66Z" transform="translate(-2.03 -10.25)"/><path class="cls-2" d="M746.47,234.5c-.58-.23-.56-.27,0,0,.22.11.43.23.64.36a2.67,2.67,0,0,1,.78.5l-.43-.33.42.37a4.67,4.67,0,0,1,1.15,1.2c-.13-.29-.45-.65-.13-.12.2.32.39.63.57,1a5.06,5.06,0,0,0,6.84,1.79,5.11,5.11,0,0,0,1.8-6.84,16.93,16.93,0,0,0-9-7.56c-2.45-.95-5.6,1.05-6.16,3.5-.65,2.87.88,5.13,3.5,6.15Z" transform="translate(-2.03 -10.25)"/><path class="cls-2" d="M763.23,250.73c2.69,1.82,3.08,4.33,4,7.21,1.43,4.41,6.28,7.83,10.83,5.36,4.39-2.38,4.37-8.48.91-11.66-2.45-2.25-5.64-3.06-7.72-5.84-1.61-2.16-4.32-3.26-6.84-1.79-2.13,1.24-3.41,4.66-1.79,6.84a26.22,26.22,0,0,0,5,5.23,23,23,0,0,0,2.72,1.87c.4.23.81.43,1.22.65,2.14,1.2-1.24-.32.2-2.48l1.8-1.79q4,2.68,3.24.58c-.11-.37-.2-.75-.28-1.13s-.22-1-.37-1.45a19.5,19.5,0,0,0-1.84-4.12,19.94,19.94,0,0,0-6-6.12c-2.24-1.51-5.54-.43-6.84,1.79a5.11,5.11,0,0,0,1.79,6.85Z" transform="translate(-2.03 -10.25)"/><path class="cls-2" d="M202,220.32a9.93,9.93,0,0,0,1.32.76c-.18,0-.92-.79-.19-.1.18.17.35.36.53.54.47.49-.15-.09-.21-.3a4.14,4.14,0,0,0,.41.65c.07.11.23.62.35.67l-.27-.63a5.62,5.62,0,0,1,.19.58,5,5,0,0,0,9.65-2.66,13.37,13.37,0,0,0-6.73-8.15c-2.36-1.13-5.51-.72-6.84,1.79-1.19,2.24-.73,5.63,1.79,6.85Z" transform="translate(-2.03 -10.25)"/><path class="cls-2" d="M203.87,171.21a20.38,20.38,0,0,0,9.52,11.61,5,5,0,0,0,5.05-8.63,9.17,9.17,0,0,1-3.28-2.63c-.56-.63.3.47-.18-.22a13,13,0,0,1-.71-1.11c-.17-.3-.34-.61-.49-.93.31.65-.26-.73-.27-.75a5.11,5.11,0,0,0-6.15-3.49,5,5,0,0,0-3.49,6.15Z" transform="translate(-2.03 -10.25)"/><path class="cls-2" d="M410.71,73.62c-.74-.92.31.48.43.66.25.41.49.83.71,1.26.12.23.65,1.6.26.5.19.52.36,1,.52,1.57A5,5,0,1,0,422.27,75a23.79,23.79,0,0,0-4.49-8.4c-1.64-2.06-5.38-1.84-7.07,0-2,2.18-1.75,4.88,0,7.07Z" transform="translate(-2.03 -10.25)"/><path class="cls-2" d="M405.36,24.49c-6.36,1-12.66,3.23-18.75,5.23s-12.5,4-18.31,6.9-.7,11.5,5.05,8.63c5.38-2.68,11.36-4.41,17.07-6.26S402,35,408,34.13c6.34-1,3.65-10.6-2.66-9.64Z" transform="translate(-2.03 -10.25)"/><path class="cls-2" d="M798.34,121.13l-6.82-5.32c-2.49-1.93-5.36-3.9-8.67-2.62-2.51,1-4.25,3.36-3.49,6.15.66,2.41,3.62,4.47,6.15,3.5-1.81-.56-2.2-.56-1.16,0a3.76,3.76,0,0,1,.72.54l1.86,1.45,4.34,3.38c2.13,1.66,5,2.08,7.07,0,1.73-1.73,2.15-5.4,0-7.07Z" transform="translate(-2.03 -10.25)"/><path class="cls-2" d="M733.83,78.77a27.16,27.16,0,0,0-9.1-8.22,5,5,0,0,0-5.05,8.63c.62.34,1.22.69,1.81,1.08.32.22.65.44,1,.67-.55-.43,0,0,.26.25.53.47,1,1,1.51,1.47l.62.7c1,1.12-.51-.74.36.46,1.53,2.12,4.42,3.36,6.84,1.8,2.1-1.35,3.43-4.57,1.8-6.84Z" transform="translate(-2.03 -10.25)"/><path class="cls-1" d="M311.37,77.52c3.89,5.3,7.06,12.17,6.19,18.92-.93,7.16-4.86,14.67-7.29,21.45-2.17,6.07,7.49,8.68,9.65,2.65,2.9-8.09,7.93-17.48,7.76-26.21A38.69,38.69,0,0,0,320,72.47c-3.76-5.14-12.44-.16-8.63,5Z" transform="translate(-2.03 -10.25)"/><path class="cls-1" d="M302.24,85.88l1.34,9.61c.3,2.14,0,7,1.21,8.64q-.07,2.48,2-.54L305,104c-1.56-.14-3.5.63-5.07.8a74.35,74.35,0,0,1-8.31.41c-4.81,0-8.88,1-9.65,6.44-.71,4.94.58,10.93,1.79,15.71s2.93,9.51,7,12.42c3.84,2.71,8.42,3.17,12.89,4.12a43.53,43.53,0,0,1,24.93,15.64c4.05,5,11.05-2.1,7.07-7.07a27,27,0,0,0-20.73-10c-6.44-.2-6.43,9.8,0,10a17.57,17.57,0,0,1,13.66,7.12l7.07-7.07a52.72,52.72,0,0,0-22.08-16c-4.28-1.67-8.65-2.26-13.07-3.31-6.23-1.48-7.16-7.17-8.07-12.84-.22-1.35-.35-2.7-.45-4.06s.84-5.38-1.19-2.34c-1.43,2.14-.3,1.32,1.71,1.32,1.55,0,3.09,0,4.63-.16,4.35-.3,10.51-.41,14.41-2.58,4.28-2.39,3.39-6.92,2.82-11l-2.55-18.25c-.89-6.35-10.52-3.65-9.64,2.66Z" transform="translate(-2.03 -10.25)"/></svg>