<svg id="Layer_1" data-name="Layer 1" xmlns="http://www.w3.org/2000/svg" xmlns:xlink="http://www.w3.org/1999/xlink" viewBox="0 0 984.76 996.18"><defs><style>.cls-1{fill:#fff;}.cls-2{clip-path:url(#clip-path);}.cls-3{clip-path:url(#clip-path-2);}.cls-4{clip-path:url(#clip-path-3);}.cls-5{clip-path:url(#clip-path-4);}</style><clipPath id="clip-path" transform="translate(-8.44 -1.82)"><path class="cls-1" d="M145,166.41C41.67,434.74,123.87,678.28,267.61,740.87c113.16,49.28,256.45-36,296.39-59.61,164.17-97.2,220.17-259.41,234.89-307.73,12.32,34.75,42.52,134.37,8.64,255C772,754.93,688.22,825.67,659.59,847.83c54.83-1.73,96.14-15.87,124.18-29.17C965.3,732.52,988.11,492.44,989.83,471c3,38.65,9.63,183.1-89.43,321.77-97.86,137-234.3,178-272.12,188-39.92,10.94-99.6,22.07-170.62,15.13-155.52-15.2-335.1-114.05-412.5-302.52C-28,515.22,11.19,308.34,145,166.41Z"/></clipPath><clipPath id="clip-path-2" transform="translate(-8.44 -1.82)"><path class="cls-1" d="M916.67,757.18C965,473.5,836.21,250.87,682.84,217.92c-120.75-25.94-244.46,86-279,117.15-141.82,127.84-164.68,298-169.57,348.36C215.34,651.77,166,560,175.41,435c9.84-131,78.06-217,101.76-244.43-53.45,12.55-91.18,34.6-116,53.2C.08,364.2,25.17,604.23,27.73,625.64,17.14,588.32-17.92,447.94,51.84,292.3,120.75,138.55,246.49,71.33,281.61,54,318.6,35.39,375,12.66,446,5.41,601.55-10.46,797.26,51,910.45,220.52,1017.42,380.77,1019.9,591.46,916.67,757.18Z"/></clipPath><clipPath id="clip-path-3" transform="translate(-8.44 -1.82)"><path class="cls-1" d="M613.15,392.72c28.94,75.16,5.92,143.37-34.34,160.91-31.7,13.8-71.83-10.08-83-16.7-46-27.23-61.67-72.66-65.79-86.19a118,118,0,0,0,39,132.85,86.89,86.89,0,0,1-34.79-8.17C383.39,551.29,377,484,376.52,478c-.84,10.82-2.7,51.28,25.05,90.12C429,606.52,467.19,618,477.79,620.81A132.12,132.12,0,0,0,525.58,625c43.56-4.25,93.86-31.94,115.54-84.73C661.6,490.42,650.63,432.48,613.15,392.72Z"/></clipPath><clipPath id="clip-path-4" transform="translate(-8.44 -1.82)"><path class="cls-1" d="M397,558.19c-13.54-79.45,22.54-141.81,65.5-151,33.82-7.26,68.47,24.1,78.13,32.81,39.73,35.81,46.13,83.48,47.5,97.58a118.07,118.07,0,0,0-12-138,86.83,86.83,0,0,1,32.51,14.9c45.1,33.73,38.07,101,37.36,107,3-10.45,12.78-49.77-6.75-93.37-19.31-43.06-54.52-61.89-64.36-66.74a132.42,132.42,0,0,0-46-13.61c-43.58-4.45-98.39,12.76-130.1,60.25C368.79,452.76,368.1,511.78,397,558.19Z"/></clipPath></defs><path class="cls-1" d="M145,166.41C41.67,434.74,123.87,678.28,267.61,740.87c113.16,49.28,256.45-36,296.39-59.61,164.17-97.2,220.17-259.41,234.89-307.73,12.32,34.75,42.52,134.37,8.64,255C772,754.93,688.22,825.67,659.59,847.83c54.83-1.73,96.14-15.87,124.18-29.17C965.3,732.52,988.11,492.44,989.83,471c3,38.65,9.63,183.1-89.43,321.77-97.86,137-234.3,178-272.12,188-39.92,10.94-99.6,22.07-170.62,15.13-155.52-15.2-335.1-114.05-412.5-302.52C-28,515.22,11.19,308.34,145,166.41Z" transform="translate(-8.44 -1.82)"/><g class="cls-2"><ellipse class="cls-1" cx="491.33" cy="504.65" rx="491.33" ry="491.53"/></g><path class="cls-1" d="M1112.05,844.59" transform="translate(-8.44 -1.82)"/><path class="cls-1" d="M916.67,757.18C965,473.5,836.21,250.87,682.84,217.92c-120.75-25.94-244.46,86-279,117.15-141.82,127.84-164.68,298-169.57,348.36C215.34,651.77,166,560,175.41,435c9.84-131,78.06-217,101.76-244.43-53.45,12.55-91.18,34.6-116,53.2C.08,364.2,25.17,604.23,27.73,625.64,17.14,588.32-17.92,447.94,51.84,292.3,120.75,138.55,246.49,71.33,281.61,54,318.6,35.39,375,12.66,446,5.41,601.55-10.46,797.26,51,910.45,220.52,1017.42,380.77,1019.9,591.46,916.67,757.18Z" transform="translate(-8.44 -1.82)"/><g class="cls-3"><ellipse class="cls-1" cx="501.43" cy="493.8" rx="491.88" ry="491.68" transform="translate(-27.8 965.32) rotate(-86.83)"/></g><path class="cls-1" d="M613.15,392.72c28.94,75.16,5.92,143.37-34.34,160.91-31.7,13.8-71.83-10.08-83-16.7-46-27.23-61.67-72.66-65.79-86.19a118,118,0,0,0,39,132.85,86.89,86.89,0,0,1-34.79-8.17C383.39,551.29,377,484,376.52,478c-.84,10.82-2.7,51.28,25.05,90.12C429,606.52,467.19,618,477.79,620.81A132.12,132.12,0,0,0,525.58,625c43.56-4.25,93.86-31.94,115.54-84.73C661.6,490.42,650.63,432.48,613.15,392.72Z" transform="translate(-8.44 -1.82)"/><g class="cls-4"><ellipse class="cls-1" cx="505.34" cy="486.15" rx="137.62" ry="137.68"/></g><path class="cls-1" d="M342.29,582.68" transform="translate(-8.44 -1.82)"/><path class="cls-1" d="M397,558.19c-13.54-79.45,22.54-141.81,65.5-151,33.82-7.26,68.47,24.1,78.13,32.81,39.73,35.81,46.13,83.48,47.5,97.58a118.07,118.07,0,0,0-12-138,86.83,86.83,0,0,1,32.51,14.9c45.1,33.73,38.07,101,37.36,107,3-10.45,12.78-49.77-6.75-93.37-19.31-43.06-54.52-61.89-64.36-66.74a132.42,132.42,0,0,0-46-13.61c-43.58-4.45-98.39,12.76-130.1,60.25C368.79,452.76,368.1,511.78,397,558.19Z" transform="translate(-8.44 -1.82)"/><g class="cls-5"><ellipse class="cls-1" cx="513.32" cy="484.42" rx="137.72" ry="137.77" transform="translate(-34.46 27.32) rotate(-3.17)"/></g></svg>